<?xml version="1.0" encoding="UTF-8" standalone="no"?>
<svg xmlns="http://www.w3.org/2000/svg" width="1020" height="1200">
  <g transform="matrix(2.7759349,0,0,2.7759349,10,17.132446)">
    <path d="m 334.629,131.94668 c -14.147,0 -25.622,11.652 -25.622,26.02 v 101.68 c 0,14.372 11.475,26.019 25.622,26.019 14.147,0 25.61,-11.646 25.61,-26.019 v -101.68 c 0.001,-14.368 -11.462,-26.02 -25.61,-26.02 z m -309.011,0 c -14.155,0 -25.618,11.652 -25.618,26.02 v 101.68 c 0,14.372 11.462,26.019 25.618,26.019 14.153,0 25.623,-11.646 25.623,-26.019 v -101.68 c -0.008,-14.368 -11.475,-26.02 -25.623,-26.02 z" style="fill:#94c147" />
    <path d="m 66.651,132.74068 v 185.768 c 0,11.035 8.948,19.98 19.983,19.98 h 22.815 v 56.567 c 0,14.37 11.47,26.016 25.623,26.016 14.148,0 25.623,-11.646 25.623,-26.016 v -56.567 h 39.878 v 56.567 c 0,14.37 11.463,26.016 25.61,26.016 14.147,0 25.622,-11.646 25.622,-26.016 v -56.567 h 22.828 c 11.022,0 19.971,-8.953 19.971,-19.98 v -185.768 H 66.651 l 0,0 z" style="fill:#94c147" />
    <path d="M 234.154,36.481679 255.211,5.9096789 c 1.245,-1.819 0.939,-4.1989996 -0.695,-5.32899961 -1.637,-1.123 -3.968,-0.568 -5.225,1.25100001 L 227.416,33.581679 c -14.404,-5.682 -30.418,-8.844 -47.293,-8.844 -16.87,0 -32.893,3.162 -47.297,8.844 L 110.951,1.8316793 C 109.694,0.01267929 107.362,-0.54332071 105.726,0.58067929 104.09,1.7046793 103.78,4.0896789 105.03,5.9096789 l 21.057,30.5720001 c -33.463999,15.57 -56.951,45.166 -59.941,79.706001 H 294.102 C 291.111,81.647679 267.624,52.052679 234.154,36.481679 z m -102.115,48.175 c -6.965,0 -12.617,-5.646 -12.617,-12.616 0,-6.958 5.647,-12.61 12.617,-12.61 6.97,0 12.603,5.652 12.603,12.61 0,6.965 -5.64,12.616 -12.603,12.616 z m 97.744,0 c -6.97,0 -12.609,-5.646 -12.609,-12.616 0,-6.958 5.64,-12.61 12.609,-12.61 6.971,0 12.61,5.652 12.61,12.61 0,6.965 -5.64,12.616 -12.61,12.616 z" style="fill:#94c147" />
  </g>
</svg>
