<?xml version="1.0" encoding="UTF-8" standalone="no"?>
<!-- Created with Inkscape (http://www.inkscape.org/) -->

<svg
   xmlns:dc="http://purl.org/dc/elements/1.1/"
   xmlns:cc="http://creativecommons.org/ns#"
   xmlns:rdf="http://www.w3.org/1999/02/22-rdf-syntax-ns#"
   xmlns:svg="http://www.w3.org/2000/svg"
   xmlns="http://www.w3.org/2000/svg"
   xmlns:xlink="http://www.w3.org/1999/xlink"
   xmlns:sodipodi="http://sodipodi.sourceforge.net/DTD/sodipodi-0.dtd"
   xmlns:inkscape="http://www.inkscape.org/namespaces/inkscape"
   width="673.95142"
   height="515.52277"
   id="svg2"
   version="1.1"
   inkscape:version="0.48.0 r9654"
   sodipodi:docname="logo.svg">
  <defs
     id="defs4">
    <inkscape:perspective
       sodipodi:type="inkscape:persp3d"
       inkscape:vp_x="0 : 0.5 : 1"
       inkscape:vp_y="0 : 1000 : 0"
       inkscape:vp_z="1 : 0.5 : 1"
       inkscape:persp3d-origin="0.5 : 0.33333333 : 1"
       id="perspective3608" />
    <inkscape:perspective
       id="perspective10"
       inkscape:persp3d-origin="372.04724 : 350.78739 : 1"
       inkscape:vp_z="744.09448 : 526.18109 : 1"
       inkscape:vp_y="0 : 1000 : 0"
       inkscape:vp_x="0 : 526.18109 : 1"
       sodipodi:type="inkscape:persp3d" />
    <inkscape:perspective
       id="perspective3289"
       inkscape:persp3d-origin="300 : 400 : 1"
       inkscape:vp_z="700 : 600 : 1"
       inkscape:vp_y="0 : 1000 : 0"
       inkscape:vp_x="-50 : 600 : 1"
       sodipodi:type="inkscape:persp3d" />
    <inkscape:perspective
       id="perspective3289-0"
       inkscape:persp3d-origin="300 : 400 : 1"
       inkscape:vp_z="700 : 600 : 1"
       inkscape:vp_y="0 : 1000 : 0"
       inkscape:vp_x="-50 : 600 : 1"
       sodipodi:type="inkscape:persp3d" />
  </defs>
  <sodipodi:namedview
     id="base"
     pagecolor="#00ffff"
     bordercolor="#666666"
     borderopacity="1.0"
     inkscape:pageopacity="0"
     inkscape:pageshadow="2"
     inkscape:zoom="0.98994949"
     inkscape:cx="211.9278"
     inkscape:cy="192.28835"
     inkscape:document-units="px"
     inkscape:current-layer="layer1"
     showgrid="false"
     fit-margin-top="0"
     fit-margin-left="0"
     fit-margin-right="0"
     fit-margin-bottom="0"
     inkscape:window-width="1920"
     inkscape:window-height="970"
     inkscape:window-x="0"
     inkscape:window-y="49"
     inkscape:window-maximized="1" />
  <metadata
     id="metadata7">
    <rdf:RDF>
      <cc:Work
         rdf:about="">
        <dc:format>image/svg+xml</dc:format>
        <dc:type
           rdf:resource="http://purl.org/dc/dcmitype/StillImage" />
        <dc:title></dc:title>
      </cc:Work>
    </rdf:RDF>
  </metadata>
  <g
     inkscape:label="Layer 1"
     inkscape:groupmode="layer"
     id="layer1"
     transform="translate(95.276665,-7.85406)">
    <g
       id="g4085"
       transform="translate(0,-515.39594)">
      <path
         transform="matrix(11.006941,0,0,11.006941,-87.35107,553.09148)"
         d="m 50,22.362183 c 0,11.045695 -8.954305,20 -20,20 -11.045695,0 -20,-8.954305 -20,-20 0,-11.045695 8.954305,-20.0000004 20,-20.0000004 11.045695,0 20,8.9543054 20,20.0000004 z"
         sodipodi:ry="20"
         sodipodi:rx="20"
         sodipodi:cy="22.362183"
         sodipodi:cx="30"
         id="path2822"
         style="fill:#fbffba;fill-opacity:1;stroke:#cbc000;stroke-width:3.4999733;stroke-miterlimit:4;stroke-opacity:1;stroke-dasharray:none"
         sodipodi:type="arc" />
      <path
         inkscape:connector-curvature="0"
         sodipodi:nodetypes="cc"
         id="path3598"
         d="m 242.85716,634.12659 0,165.10412"
         style="fill:#ffccaa;stroke:#998f00;stroke-width:16.51041222;stroke-linecap:round;stroke-linejoin:round;stroke-miterlimit:4;stroke-opacity:1;stroke-dasharray:none" />
      <path
         inkscape:connector-curvature="0"
         inkscape:transform-center-x="2.8990745"
         inkscape:transform-center-y="-6.9170341"
         sodipodi:nodetypes="cc"
         id="path3598-1"
         d="m 179.03728,646.95993 63.81988,152.27078"
         style="fill:#ffccaa;stroke:#998f00;stroke-width:13.20833015;stroke-linecap:round;stroke-linejoin:round;stroke-miterlimit:4;stroke-opacity:1;stroke-dasharray:none" />
      <path
         inkscape:connector-curvature="0"
         inkscape:transform-center-x="-14"
         id="path3624"
         d="m 407.96127,799.23071 -22.01388,0"
         style="fill:#ffccaa;stroke:#998f00;stroke-width:6.96140051px;stroke-linecap:butt;stroke-linejoin:miter;stroke-opacity:1" />
      <use
         inkscape:transform-center-y="-7.0000005"
         height="1052.3622"
         width="744.09448"
         transform="matrix(0.8660254,-0.5,0.5,0.8660254,-367.07867,228.50519)"
         id="use3666"
         inkscape:transform-center-x="-12.124355"
         xlink:href="#path3624"
         y="0"
         x="0"
         style="fill:#ffccaa;stroke:#998f00;stroke-opacity:1" />
      <use
         height="1052.3622"
         width="744.09448"
         transform="matrix(0.8660254,-0.5,0.5,0.8660254,-367.07867,228.50519)"
         id="use3668"
         inkscape:transform-center-y="-12.124356"
         inkscape:transform-center-x="-6.9999986"
         xlink:href="#use3666"
         y="0"
         x="0"
         style="fill:#ffccaa;stroke:#998f00;stroke-opacity:1" />
      <use
         height="1052.3622"
         width="744.09448"
         transform="matrix(0.8660254,-0.5,0.5,0.8660254,-367.07866,228.50519)"
         id="use3670"
         inkscape:transform-center-y="-14"
         xlink:href="#use3668"
         y="0"
         x="0"
         style="fill:#ffccaa;stroke:#998f00;stroke-opacity:1" />
      <use
         inkscape:transform-center-x="7.0000006"
         height="1052.3622"
         width="744.09448"
         transform="matrix(0.8660254,-0.5,0.5,0.8660254,-367.07867,228.50519)"
         id="use3672"
         inkscape:transform-center-y="-12.124356"
         xlink:href="#use3670"
         y="0"
         x="0"
         style="fill:#ffccaa;stroke:#998f00;stroke-opacity:1" />
      <use
         height="1052.3622"
         width="744.09448"
         transform="matrix(0.8660254,-0.5,0.5,0.8660254,-367.07867,228.50519)"
         id="use3674"
         inkscape:transform-center-y="-7"
         inkscape:transform-center-x="12.124357"
         xlink:href="#use3672"
         y="0"
         x="0"
         style="fill:#ffccaa;stroke:#998f00;stroke-opacity:1" />
      <use
         height="1052.3622"
         width="744.09448"
         transform="matrix(0.8660254,-0.5,0.5,0.8660254,-367.07867,228.50519)"
         id="use3676"
         inkscape:transform-center-x="14.000002"
         xlink:href="#use3674"
         y="0"
         x="0"
         style="fill:#ffccaa;stroke:#998f00;stroke-opacity:1" />
      <use
         inkscape:transform-center-y="7.0000005"
         height="1052.3622"
         width="744.09448"
         transform="matrix(0.8660254,-0.5,0.5,0.8660254,-367.07867,228.50519)"
         id="use3678"
         inkscape:transform-center-x="12.124358"
         xlink:href="#use3676"
         y="0"
         x="0"
         style="fill:#ffccaa;stroke:#998f00;stroke-opacity:1" />
      <use
         height="1052.3622"
         width="744.09448"
         transform="matrix(0.8660254,-0.5,0.5,0.8660254,-367.07867,228.5052)"
         id="use3680"
         inkscape:transform-center-y="12.124358"
         inkscape:transform-center-x="7.000002"
         xlink:href="#use3678"
         y="0"
         x="0"
         style="fill:#ffccaa;stroke:#998f00;stroke-opacity:1" />
      <use
         height="1052.3622"
         width="744.09448"
         transform="matrix(0.8660254,-0.5,0.5,0.8660254,-367.07867,228.50519)"
         id="use3682"
         inkscape:transform-center-y="14.000002"
         xlink:href="#use3680"
         y="0"
         x="0"
         style="fill:#ffccaa;stroke:#998f00;stroke-opacity:1" />
      <use
         inkscape:transform-center-x="-7.0000008"
         height="1052.3622"
         width="744.09448"
         transform="matrix(0.8660254,-0.5,0.5,0.8660254,-367.07867,228.50519)"
         id="use3684"
         inkscape:transform-center-y="12.124357"
         xlink:href="#use3682"
         y="0"
         x="0"
         style="fill:#ffccaa;stroke:#998f00;stroke-opacity:1" />
      <use
         height="1052.3622"
         width="744.09448"
         transform="matrix(0.8660254,-0.5,0.5,0.8660254,-367.07867,228.50519)"
         id="use3686"
         inkscape:transform-center-y="7.0000005"
         inkscape:transform-center-x="-12.124357"
         xlink:href="#use3684"
         y="0"
         x="0"
         style="fill:#ffccaa;stroke:#998f00;stroke-opacity:1" />
      <rect
         ry="3.4038053"
         inkscape:transform-center-y="-28.341734"
         y="538.3598"
         x="222.20882"
         height="28.359627"
         width="41.296688"
         id="rect3688"
         style="fill:#ffccaa;fill-opacity:1;stroke:#998f00;stroke-width:30.24843025;stroke-linecap:round;stroke-linejoin:round;stroke-miterlimit:4;stroke-opacity:1;stroke-dasharray:none" />
      <rect
         transform="matrix(0.8660254,-0.5,0.5,0.8660254,0,0)"
         style="fill:#ffccaa;fill-opacity:1;stroke:#998f00;stroke-width:27.51735306;stroke-linecap:round;stroke-linejoin:round;stroke-miterlimit:4;stroke-opacity:1;stroke-dasharray:none"
         id="use3694"
         width="44.027763"
         height="22.013889"
         x="-211.30876"
         y="560.42303"
         inkscape:transform-center-y="-22" />
      <rect
         transform="matrix(0.8660254,0.5,-0.5,0.8660254,0,0)"
         style="fill:#ffccaa;fill-opacity:1;stroke:#998f00;stroke-width:27.51735306;stroke-linecap:round;stroke-linejoin:round;stroke-miterlimit:4;stroke-opacity:1;stroke-dasharray:none"
         id="use3696"
         width="44.027763"
         height="22.013889"
         x="587.92194"
         y="317.56586"
         inkscape:transform-center-y="-22" />
    </g>
    <g
       id="g3289"
       transform="matrix(0.94419754,0,0,0.94419754,676.44685,-425.23304)">
      <path
         transform="translate(-121.72338,482.66165)"
         d="m -479.31739,464.13959 c 0,27.89459 -22.61303,50.50762 -50.50762,50.50762 -27.89459,0 -50.50763,-22.61303 -50.50763,-50.50762 0,-27.89459 22.61304,-50.50763 50.50763,-50.50763 27.89459,0 50.50762,22.61304 50.50762,50.50763 z"
         sodipodi:ry="50.507626"
         sodipodi:rx="50.507626"
         sodipodi:cy="464.13959"
         sodipodi:cx="-529.82501"
         id="path3220"
         style="fill:#ffffff"
         sodipodi:type="arc" />
      <path
         transform="translate(289.91379,476.60074)"
         d="m -479.31739,464.13959 c 0,27.89459 -22.61303,50.50762 -50.50762,50.50762 -27.89459,0 -50.50763,-22.61303 -50.50763,-50.50762 0,-27.89459 22.61304,-50.50763 50.50763,-50.50763 27.89459,0 50.50762,22.61304 50.50762,50.50763 z"
         sodipodi:ry="50.507626"
         sodipodi:rx="50.507626"
         sodipodi:cy="464.13959"
         sodipodi:cx="-529.82501"
         id="path3220-4"
         style="fill:#ffffff"
         sodipodi:type="arc" />
      <rect
         y="849.32153"
         x="-642.9621"
         height="21.213203"
         width="51.51778"
         id="rect3242"
         style="fill:#ffffff" />
      <rect
         y="853.86719"
         x="-482.85294"
         height="21.213203"
         width="51.51778"
         id="rect3242-1"
         style="fill:#ffffff" />
      <path
         transform="translate(-139.40105,480.64135)"
         d="m 21.71828,416.66241 c 0,15.34203 -12.4371693,27.7792 -27.7791955,27.7792 -15.3420265,0 -27.7791955,-12.43717 -27.7791955,-27.7792 0,-15.34202 12.437169,-27.77919 27.7791955,-27.77919 15.3420262,0 27.7791955,12.43717 27.7791955,27.77919 z"
         sodipodi:ry="27.779196"
         sodipodi:rx="27.779196"
         sodipodi:cy="416.66241"
         sodipodi:cx="-6.0609155"
         id="path3264"
         style="fill:#ffffff"
         sodipodi:type="arc" />
      <path
         transform="matrix(0.43636365,0,0,0.43636365,-788.30468,662.45443)"
         d="m 21.71828,416.66241 c 0,15.34203 -12.4371693,27.7792 -27.7791955,27.7792 -15.3420265,0 -27.7791955,-12.43717 -27.7791955,-27.7792 0,-15.34202 12.437169,-27.77919 27.7791955,-27.77919 15.3420262,0 27.7791955,12.43717 27.7791955,27.77919 z"
         sodipodi:ry="27.779196"
         sodipodi:rx="27.779196"
         sodipodi:cy="416.66241"
         sodipodi:cx="-6.0609155"
         id="path3264-5"
         style="fill:#ffffff"
         sodipodi:type="arc" />
      <rect
         y="846.29102"
         x="-805.09155"
         height="35.860416"
         width="26.263966"
         id="rect3286"
         style="fill:#ffffff" />
      <path
         d="m -808.8256,891.56536 c -0.37044,-35.77217 2.71011,-60.04129 12.43349,-62.16741 l 50.38839,-6.54395 c 35.64772,-16.46065 72.79865,-36.92986 105.35741,-45.15319 25.00453,-4.97903 51.46059,-8.02279 79.8361,-8.50713 57.09966,0.91054 120.60687,-2.98447 160.98096,10.47031 38.45445,17.76009 76.33696,36.66408 112.55575,58.89547 48.81716,3.33106 148.46295,16.91067 162.94421,32.71974 7.22083,9.69557 12.96883,20.12756 15.70543,32.06527 6.3276,2.61582 5.88094,12.00589 3.27197,23.55827 l -0.65437,23.5581 -24.21261,9.8159 -47.77078,5.8896 -12.43349,3.2719 c -18.02386,42.28466 -84.94881,37.04216 -103.39424,-1.9631 l -15.05108,2.6176 -268.30164,-2.6176 -3.27198,4.5807 -20.94058,-0.6544 c -14.05583,43.16356 -94.29665,47.11536 -106.66621,-5.8895 l -10.47032,0 -31.41093,-4.5808 -47.77074,-6.5439 c -13.02246,-7.7273 -18.45143,-13.5562 -19.63183,-18.3231 l 3.27194,-4.5807 -2.61756,-26.17579 c 1.76145,-8.86137 3.37716,-11.70651 7.85271,-13.74229 z m 289.93117,-112.15103 c -28.79712,0.0468 -56.95135,1.105 -82.28829,6.68822 l 5.90412,50.09254 88.93033,3.09042 c 3.65344,-0.77296 7.45394,-1.37149 6.73436,-7.61076 l -9.27128,-52.26042 c -3.34972,-0.017 -6.67312,-0.004 -10.00924,0 z m -86.53184,7.65686 c -17.04851,4.1593 -32.74334,10.50072 -46.3563,20.15691 -5.39503,3.6144 -7.36943,7.90107 -7.14951,12.63845 2.50009,10.82213 8.886,15.17375 18.12743,14.76026 l 41.28246,1.42989 -5.90408,-48.98551 z m 115.944,-7.23078 18.97026,53.95982 c 2.39253,3.90313 5.86976,6.83006 12.22522,7.16656 l 92.32195,3.79404 c -13.16039,-8.96285 -2.3346,-25.52616 10.96056,-21.92121 -24.9469,-20.77467 -52.03415,-33.9607 -81.36134,-39.20517 -17.20293,-2.7725 -35.13119,-3.36912 -53.11665,-3.79404 z m -305.70077,53.52983 c -7.58515,2.71304 -9.42465,22.00011 -9.73317,45.70353 l 24.7561,-0.21137 c 0.95086,-8.2873 1.12766,-16.57459 0.1059,-24.86188 -2.43582,-14.49738 -9.21778,-16.29061 -15.1287,-20.63007 z m 164.35458,22.20175 23.43616,0 c 1.86259,0 3.36206,1.49946 3.36206,3.36201 0,1.8626 -1.49947,3.36202 -3.36206,3.36202 l -23.43616,0 c -1.86259,0 -3.36206,-1.49942 -3.36206,-3.36202 0,-1.86255 1.49947,-3.36201 3.36206,-3.36201 z m 161.62177,3.86656 23.4362,0 c 1.86259,0 3.36201,1.49946 3.36201,3.36201 0,1.86255 -1.49942,3.36202 -3.36201,3.36202 l -23.4362,0 c -1.8626,0 -3.36202,-1.49947 -3.36202,-3.36202 0,-1.86255 1.49942,-3.36201 3.36202,-3.36201 z m -145.67116,90.23419 c 0,21.4307 -17.39296,38.8237 -38.82371,38.8237 -21.43062,0 -38.82362,-17.393 -38.82362,-38.8237 0,-21.4307 17.393,-38.82371 38.82362,-38.82371 21.43075,0 38.82371,17.39301 38.82371,38.82371 z m 414.41847,-4.9213 c 0,21.4307 -17.39305,38.8237 -38.82371,38.8237 -21.43071,0 -38.82371,-17.393 -38.82371,-38.8237 0,-21.43068 17.393,-38.82373 38.82371,-38.82373 21.43066,0 38.82371,17.39305 38.82371,38.82373 z m 32.4443,-46.90313 50.16208,0.32366 c -3.86941,-8.35007 -8.86171,-15.73461 -16.61278,-21.79086 l -19.4176,1.51027 c -3.56263,0.53801 -5.06652,2.1054 -6.36468,3.77562 l -7.76702,16.18131 z"
         style="fill:#000000;fill-rule:evenodd;stroke:none;display:inline"
         id="path2220"
         inkscape:connector-curvature="0" />
    </g>
  </g>
</svg>
