<?xml version="1.0" encoding="UTF-8" standalone="no"?>
<!-- Created with Inkscape (http://www.inkscape.org/) -->

<svg
   xmlns:dc="http://purl.org/dc/elements/1.1/"
   xmlns:cc="http://creativecommons.org/ns#"
   xmlns:rdf="http://www.w3.org/1999/02/22-rdf-syntax-ns#"
   xmlns:svg="http://www.w3.org/2000/svg"
   xmlns="http://www.w3.org/2000/svg"
   xmlns:xlink="http://www.w3.org/1999/xlink"
   xmlns:sodipodi="http://sodipodi.sourceforge.net/DTD/sodipodi-0.dtd"
   xmlns:inkscape="http://www.inkscape.org/namespaces/inkscape"
   width="180"
   height="120"
   id="svg2"
   version="1.1"
   inkscape:version="0.47 r22583"
   sodipodi:docname="promo_graphic.svg"
   style="display:inline"
   inkscape:export-filename="/home/kostmo/android/projects/MarketRevenuePlus/graphics/promo_graphic.png"
   inkscape:export-xdpi="90"
   inkscape:export-ydpi="90">
  <defs
     id="defs4">
    <inkscape:perspective
       sodipodi:type="inkscape:persp3d"
       inkscape:vp_x="0 : 526.18109 : 1"
       inkscape:vp_y="0 : 1000 : 0"
       inkscape:vp_z="744.09448 : 526.18109 : 1"
       inkscape:persp3d-origin="372.04724 : 350.78739 : 1"
       id="perspective10" />
    <inkscape:perspective
       id="perspective2944"
       inkscape:persp3d-origin="0.5 : 0.33333333 : 1"
       inkscape:vp_z="1 : 0.5 : 1"
       inkscape:vp_y="0 : 1000 : 0"
       inkscape:vp_x="0 : 0.5 : 1"
       sodipodi:type="inkscape:persp3d" />
    <inkscape:perspective
       id="perspective3039"
       inkscape:persp3d-origin="0.5 : 0.33333333 : 1"
       inkscape:vp_z="1 : 0.5 : 1"
       inkscape:vp_y="0 : 1000 : 0"
       inkscape:vp_x="0 : 0.5 : 1"
       sodipodi:type="inkscape:persp3d" />
    <inkscape:perspective
       id="perspective3988"
       inkscape:persp3d-origin="0.5 : 0.33333333 : 1"
       inkscape:vp_z="1 : 0.5 : 1"
       inkscape:vp_y="0 : 1000 : 0"
       inkscape:vp_x="0 : 0.5 : 1"
       sodipodi:type="inkscape:persp3d" />
  </defs>
  <sodipodi:namedview
     id="base"
     pagecolor="#ffffff"
     bordercolor="#666666"
     borderopacity="1.0"
     inkscape:pageopacity="1"
     inkscape:pageshadow="2"
     inkscape:zoom="2.8"
     inkscape:cx="131.34184"
     inkscape:cy="32.964265"
     inkscape:document-units="px"
     inkscape:current-layer="layer3"
     showgrid="false"
     inkscape:window-width="1280"
     inkscape:window-height="949"
     inkscape:window-x="0"
     inkscape:window-y="24"
     inkscape:window-maximized="1" />
  <metadata
     id="metadata7">
    <rdf:RDF>
      <cc:Work
         rdf:about="">
        <dc:format>image/svg+xml</dc:format>
        <dc:type
           rdf:resource="http://purl.org/dc/dcmitype/StillImage" />
        <dc:title></dc:title>
      </cc:Work>
    </rdf:RDF>
  </metadata>
  <g
     style="display:inline"
     inkscape:label="Text2 copy"
     id="g3118"
     inkscape:groupmode="layer" />
  <g
     inkscape:groupmode="layer"
     id="layer3"
     inkscape:label="Text2"
     style="display:inline">
    <g
       id="g3995"
       transform="matrix(0.84939838,0,0,1,28.945188,0)">
      <path
         transform="scale(1.0353188,0.96588607)"
         d="m 32.09375,6 c -0.963762,0 -2.622126,-0.017595 -4.21875,1.5 -1.596624,1.5175949 -1.65625,3.29797 -1.65625,4.34375 l 0,21.75 c 0,0.998791 0.03559,2.694958 1.5625,4.25 1.526911,1.555042 3.26672,1.625 4.3125,1.625 l 7.875,0 c 3.353224,0 7.617081,-0.998904 10.6875,-4.53125 l 0.03125,0.03125 c 0.01605,-0.01812 0.01533,-0.04434 0.03125,-0.0625 0.133459,-0.152246 0.218946,-0.313443 0.34375,-0.46875 0.552505,0.912903 1.158753,1.759383 1.90625,2.4375 2.478979,2.24889 5.518342,2.96875 8.0625,2.96875 1.986239,0 3.827423,-0.502708 5.34375,-1.1875 A 4.2375892,4.2375892 0 0 0 66.4375,38.625 c 0.580467,-0.274958 1.282634,-0.653885 2.09375,-1.25 0.325558,-0.239263 0.684008,-0.572403 1.0625,-0.96875 0.593734,1.010578 1.342664,1.953037 2.34375,2.4375 1.480951,0.716688 2.617795,0.625 3,0.625 l 1.71875,0 c 0.382205,0 1.513883,0.10997 3,-0.625 1.465245,-0.724648 2.603899,-2.365243 3.03125,-3.8125 0.471436,0.680838 1.004011,1.311513 1.59375,1.84375 2.486983,2.244494 5.518342,2.96875 8.0625,2.96875 1.986239,0 3.823213,-0.51492 5.3125,-1.1875 a 4.2375892,4.2375892 0 0 0 0.0625,-0.03125 c 0.303627,-0.143824 0.729755,-0.443729 1.09375,-0.65625 1.48008,1.374799 3.12228,1.5 4.125,1.5 l 0.6875,0 c 1.04447,0 2.77696,-0.09261 4.28125,-1.625 0.17333,-0.176564 0.17603,-0.351692 0.3125,-0.53125 2.00285,1.614653 4.61803,2.53125 7.53125,2.53125 1.68806,0 4.07095,-0.356908 6.3125,-1.71875 l 0,1.5 c 0,0.99879 0.0254,2.734193 1.59375,4.28125 1.56833,1.547057 3.26953,1.5625 4.28125,1.5625 l 0.78125,0 c 1.00944,0 2.70436,-0.03811 4.25,-1.5625 1.50872,-1.487978 1.59104,-3.149044 1.59375,-4.15625 2.71351,-0.195327 5.29466,-1.428266 7.15625,-3.59375 0.21304,0.231551 0.39451,0.510736 0.625,0.71875 2.48698,2.244495 5.51834,2.96875 8.0625,2.96875 1.98624,0 3.82322,-0.514921 5.3125,-1.1875 a 4.2375892,4.2375892 0 0 0 0.0625,-0.03125 c 0.31327,-0.148392 0.76018,-0.455095 1.15625,-0.6875 1.48357,1.387186 3.11921,1.53125 4.125,1.53125 l 0.6875,0 c 1.04447,0 2.81754,-0.08233 4.3125,-1.65625 1.49496,-1.573918 1.5,-3.226442 1.5,-4.1875 l 0,-7.25 c 0,-1.592566 0.26664,-1.343838 0.625,-1.375 8.1e-4,-2.9e-5 -8.1e-4,-0.03122 0,-0.03125 0.19043,-0.0067 0.41925,0.01713 1,-0.125 0.65458,-0.160203 1.90841,-0.752609 2.625,-1.75 1.43317,-1.994782 0.90625,-2.745665 0.90625,-3.25 l 0,-1.03125 c 0,-0.352778 0.41722,-0.755476 -0.5,-2.625 -0.45861,-0.934762 -1.64421,-1.929288 -2.53125,-2.25 -0.88704,-0.320712 -1.41472,-0.3125 -1.78125,-0.3125 -1.16266,0 -2.31423,0.396174 -3.4375,0.9375 -1.05922,-0.526333 -2.13721,-0.8125 -2.90625,-0.8125 l -0.5,0 c -0.99879,0 -2.69496,0.03559 -4.25,1.5625 -0.10367,0.101794 -0.0967,0.209005 -0.1875,0.3125 -1.88051,-1.440269 -4.28209,-2.1875 -6.65625,-2.1875 -2.39073,0 -5.33508,0.69668 -7.75,2.9375 -0.17481,0.16221 -0.30433,0.386168 -0.46875,0.5625 -1.67075,-1.851612 -4.20497,-3.3125 -7.09375,-3.3125 -1.31458,0 -2.49268,0.33908 -3.59375,0.78125 -0.0115,-0.0044 -0.0198,0.0044 -0.0312,0 -0.91095,-0.346087 -1.68847,-0.4375 -2.40625,-0.4375 l -0.6875,0 c -0.99879,0 -2.69496,0.03559 -4.25,1.5625 -0.20734,0.203588 -0.21762,0.415704 -0.375,0.625 -2.41929,-2.049878 -5.35262,-2.71875 -7.5625,-2.71875 -1.9279,0 -4.22281,0.519933 -6.28125,1.78125 l 0,-3.40625 c 0,-0.843705 0.0546,-2.4181958 -1.40625,-4.03125 C 106.6016,6.1681958 104.76999,6 103.625,6 l -0.6875,0 c -0.96376,0 -2.62213,-0.017596 -4.21875,1.5 -1.596624,1.517596 -1.65625,3.297971 -1.65625,4.34375 l 0,2.875 c -1.585941,-0.815244 -3.372925,-1.28125 -5.15625,-1.28125 -2.06081,0 -4.527357,0.580291 -6.71875,2.15625 -0.468991,-0.475376 -0.935339,-1.014424 -1.375,-1.1875 -1.340318,-0.527628 -2.169813,-0.4375 -2.40625,-0.4375 l -0.3125,0 c -0.677807,0 -1.974363,-0.01119 -3.4375,0.875 -0.778717,0.471652 -1.362602,1.135957 -1.8125,1.84375 -0.2912,-0.471986 -0.63896,-0.960912 -1.1875,-1.40625 -1.335564,-1.084291 -2.897895,-1.3125 -4.0625,-1.3125 l -0.40625,0 c -0.320426,0 -1.189043,-0.157127 -2.625,0.5 -0.325176,0.148808 -0.576665,0.522765 -0.875,0.78125 -1.780095,-1.166005 -3.929583,-1.8125 -6.0625,-1.8125 -2.185128,0 -4.809515,0.659183 -7.09375,2.46875 -0.485912,-1.50381 -1.112485,-2.940174 -2,-4.21875 -0.0087,-0.01258 -0.02254,-0.01871 -0.03125,-0.03125 C 48.717863,7.6507514 44.120433,6 39.9375,6 L 32.09375,6 z M 39,17.21875 c 1.852665,0.03789 1.837345,0.321293 2.25,1.28125 0.441027,1.025958 0.5625,2.950435 0.5625,4.40625 0,1.435459 -0.121093,3.235289 -0.53125,4.15625 C 40.893925,27.932195 40.93621,28.217699 39,28.25 L 39,17.21875 z M 53.875,42 c -0.963762,0 -2.622126,-0.0176 -4.21875,1.5 C 48.059626,45.017595 48,46.79797 48,47.84375 l 0,21.75 c 0,0.998791 0.03559,2.694958 1.5625,4.25 1.526911,1.555042 3.26672,1.625 4.3125,1.625 l 1.09375,0 c 1.04447,0 2.81754,-0.08233 4.3125,-1.65625 1.318132,-1.387749 1.454215,-2.77038 1.46875,-3.75 l 1.125,2.21875 a 4.2375892,4.2375892 0 0 0 0.03125,0.03125 c 0.21767,0.415552 0.615125,1.488287 2.0625,2.375 1.447375,0.886713 2.535758,0.78125 3.21875,0.78125 l 1.53125,0 c 0.20156,0 0.95677,0.13907 2.3125,-0.375 0.602849,-0.22859 1.287494,-0.882105 1.875,-1.625 2.313117,1.729952 4.973197,2.375 7.25,2.375 1.986239,0 3.827423,-0.502708 5.34375,-1.1875 A 4.2375892,4.2375892 0 0 0 85.5625,74.625 c 0.580467,-0.274958 1.282634,-0.653885 2.09375,-1.25 0.325558,-0.239263 0.684008,-0.572403 1.0625,-0.96875 0.593734,1.010578 1.342664,1.953037 2.34375,2.4375 1.480951,0.716688 2.617795,0.625 3,0.625 l 1.71875,0 c 0.382205,0 1.513883,0.10997 3,-0.625 1.46524,-0.724648 2.6039,-2.365243 3.03125,-3.8125 0.47144,0.680838 1.00401,1.311513 1.59375,1.84375 2.48698,2.244495 5.51834,2.96875 8.0625,2.96875 1.98624,0 3.82322,-0.514921 5.3125,-1.1875 a 4.2375892,4.2375892 0 0 0 0.0625,-0.03125 c 0.30363,-0.143824 0.72975,-0.443729 1.09375,-0.65625 1.47422,1.354318 3.09616,1.5 4.09375,1.5 l 0.78125,0 c 1.04447,0 2.77696,-0.09261 4.28125,-1.625 0.0316,-0.03222 0.0322,-0.0614 0.0625,-0.09375 1.39803,1.444553 3.18262,1.71875 4.3125,1.71875 l 0.8125,0 c 1.04447,0 2.77696,-0.09261 4.28125,-1.625 0.0196,-0.01998 0.0121,-0.04247 0.0312,-0.0625 1.93332,1.578295 4.25887,2.0625 6.4375,2.0625 0.35545,0 1.94032,-0.04474 3.59375,-0.78125 0.85413,0.29782 1.68559,0.40625 2.3125,0.40625 l 0.71875,0 c 1.04447,0 2.77696,-0.09261 4.28125,-1.625 0.21255,-0.216522 0.21712,-0.435675 0.375,-0.65625 2.40254,1.957208 5.22368,2.65625 7.625,2.65625 1.98624,0 3.82322,-0.514921 5.3125,-1.1875 a 4.2375892,4.2375892 0 0 0 0.0625,-0.03125 c 0.55791,-0.264272 1.24649,-0.6287 2.0625,-1.21875 0.40801,-0.295025 0.84319,-0.64009 1.34375,-1.21875 0.50056,-0.57866 1.3125,-1.492421 1.3125,-3.3125 0,-1.160935 -0.13417,-1.551301 -0.15625,-1.75 a 4.2375892,4.2375892 0 0 0 -0.0312,-0.1875 c -0.0448,-0.283477 0.11611,-0.493035 -0.4375,-1.75 -0.0577,-0.130934 -0.21763,-0.313335 -0.3125,-0.46875 0.8153,-1.224073 1.15625,-2.519908 1.15625,-3.40625 0,-3.131528 -0.7531,-6.107795 -2.71875,-8.40625 -1.96565,-2.298455 -5.03243,-3.46875 -8.03125,-3.46875 -2.23135,0 -4.9338,0.660941 -7.25,2.5625 -0.053,-0.06563 -0.0359,-0.121606 -0.0937,-0.1875 -1.42032,-1.617033 -3.32275,-1.84375 -4.5,-1.84375 l -0.84375,0 c -1.04447,0 -2.81754,0.08233 -4.3125,1.65625 -0.0194,0.02045 -0.0123,0.04203 -0.0312,0.0625 -1.39502,-1.425355 -3.15688,-1.71875 -4.28125,-1.71875 l -0.78125,0 c -0.99879,0 -2.69496,0.03559 -4.25,1.5625 -0.0198,0.01946 -0.0119,0.04297 -0.0312,0.0625 -1.60839,-1.282261 -3.76366,-1.96875 -5.875,-1.96875 -1.35784,0 -2.61042,0.387722 -3.78125,0.90625 -1.04945,-0.51064 -2.10596,-0.78125 -2.875,-0.78125 l -0.5625,0 c -0.99879,0 -2.69496,0.03559 -4.25,1.5625 -0.0915,0.08982 -0.0749,0.190082 -0.15625,0.28125 -1.86711,-1.410154 -4.24801,-2.15625 -6.59375,-2.15625 -2.06081,0 -4.52736,0.58029 -6.71875,2.15625 -0.46899,-0.475376 -0.93534,-1.014424 -1.375,-1.1875 -1.34032,-0.527628 -2.16981,-0.4375 -2.40625,-0.4375 l -0.3125,0 c -0.677807,0 -1.974363,-0.01119 -3.4375,0.875 -0.778717,0.471652 -1.362602,1.135957 -1.8125,1.84375 -0.2912,-0.471986 -0.63896,-0.960912 -1.1875,-1.40625 -1.335564,-1.084291 -2.897895,-1.3125 -4.0625,-1.3125 l -0.40625,0 c -0.320426,0 -1.189043,-0.157127 -2.625,0.5 -0.325176,0.148808 -0.576665,0.522765 -0.875,0.78125 -1.780095,-1.166005 -3.929583,-1.8125 -6.0625,-1.8125 -1.95243,0 -4.272157,0.517956 -6.375,1.90625 -0.376605,-2.309024 -1.246901,-4.590738 -3.09375,-6.25 C 67.929863,42.981196 64.675905,42 61.03125,42 L 53.875,42 z m 6.90625,11.1875 c 0.18343,0.0075 0.272308,0.01982 0.375,0.03125 2.48e-4,0.02038 0,0.0094 0,0.03125 0,0.02117 2.43e-4,0.0115 0,0.03125 -0.09779,0.01144 -0.197361,-0.0082 -0.375,0 l 0,-0.09375 z M 65.3125,78 c -0.281499,0 -1.370651,-0.09898 -2.78125,0.5 -1.410599,0.598984 -2.803818,2.181565 -3.3125,3.75 a 4.2375892,4.2375892 0 0 0 0,0.0625 L 52.28125,104.5 a 4.2375892,4.2375892 0 0 0 -0.09375,0.21875 c -0.07267,0.203 -0.28125,0.36567 -0.28125,1.59375 0,1.81688 1.770607,4.15579 3.15625,4.71875 1.385643,0.56296 2.199236,0.4375 2.46875,0.4375 l 0.5625,0 c 1.367566,0 3.088276,-0.36033 4.375,-1.53125 1.286724,-1.17092 1.582382,-2.44642 1.71875,-2.875 l 0.5625,-1.75 2.5,0 0.25,0.84375 a 4.2375892,4.2375892 0 0 0 0.03125,0.0312 c 0.295182,0.9409 0.373793,1.95663 1.6875,3.40625 1.313707,1.44962 3.470625,1.875 4.6875,1.875 l 1.21875,0 c 0.269514,0 1.083107,0.12546 2.46875,-0.4375 0.196395,-0.0798 0.388558,-0.38674 0.59375,-0.53125 1.198998,0.70137 2.399065,0.96875 3.1875,0.96875 l 0.8125,0 c 1.044469,0 2.817539,-0.0823 4.3125,-1.65625 0.01942,-0.0204 0.01234,-0.042 0.03125,-0.0625 1.395019,1.42535 3.156876,1.71875 4.28125,1.71875 l 0.84375,0 c 1.044469,0 2.817539,-0.0823 4.3125,-1.65625 1.43908,1.15034 3.13102,2.03125 5.21875,2.03125 1.52371,0 2.7773,-0.40455 3.90625,-0.90625 0.91109,0.35151 1.80906,0.53125 2.46875,0.53125 l 0.71875,0 c 0.84056,0 2.11778,-0.27622 3.375,-1.09375 1.28226,0.84807 2.58755,1.09375 3.4375,1.09375 l 0.6875,0 c 0.1326,0 0.34677,-0.0573 0.5,-0.0625 0.0166,0.39017 0.0437,0.72297 0.0937,1.1875 0.0349,0.32386 0.0802,0.63208 0.15625,1.03125 0.038,0.19958 0.0772,0.4065 0.1875,0.75 0.11034,0.3435 -0.21323,0.83567 1.4375,2.15625 a 4.2375892,4.2375892 0 0 0 0.125,0.0625 c 1.18896,0.89172 1.50552,0.77576 1.90625,0.875 0.40073,0.0992 0.72498,0.17138 1.0625,0.21875 0.67504,0.0948 1.29685,0.15625 1.96875,0.15625 4.86748,0 8.43042,-3.74012 9.59375,-7.5625 l 0.375,-1.3125 c 0.0166,0.0155 0.0465,0.0477 0.0625,0.0625 0.60579,0.56052 1.09208,0.82483 1.53125,1.0625 0.87835,0.47533 1.61907,0.73606 1.90625,0.84375 a 4.2375892,4.2375892 0 0 0 0.0625,0.0312 c 2.34684,0.84886 4.39103,0.875 4.9375,0.875 2.07328,0 4.0942,-0.66973 5.84375,-1.84375 1.46471,1.32197 3.07311,1.46875 4.0625,1.46875 l 0.6875,0 c 0.9113,0 2.33492,-0.24899 3.6875,-1.28125 0.74848,0.37889 1.4331,0.6546 1.6875,0.75 a 4.2375892,4.2375892 0 0 0 0.0625,0.0312 c 2.33115,0.84318 4.35978,0.875 4.90625,0.875 2.56943,0 5.23749,-0.70927 7.15625,-2.59375 1.91876,-1.88448 2.65625,-4.55608 2.65625,-7.0625 0,-2.08711 -0.73586,-4.205324 -2.0625,-5.96875 0.28161,-0.345539 0.5007,-0.701114 0.625,-0.96875 0.36002,-0.775201 0.31246,-0.937789 0.34375,-1.21875 l 0.0312,0 c 0.1457,-0.437093 0.0951,-0.439183 0.125,-0.59375 0.0347,-0.179601 0.12079,-0.49467 0.15625,-0.6875 0.033,-0.179391 0.067,-0.357018 0.0937,-0.53125 0.0268,-0.174232 0.0937,0.03393 0.0937,-0.875 0,-0.145562 0.0271,-0.583328 -0.1875,-1.34375 -0.21461,-0.760422 -0.80786,-1.621272 -1.28125,-2.0625 -0.9257,-0.862796 -1.21199,-0.84731 -1.59375,-1.03125 -0.007,-0.0039 -0.0237,0.0039 -0.0312,0 -1.47588,-0.757245 -3.6288,-1.46875 -6.15625,-1.46875 -1.0608,0 -2.61984,0.237736 -4.28125,0.875 0.0249,-0.324243 0.0937,-0.710079 0.0937,-0.96875 l 0,-0.875 c 0,-1.060843 -0.0376,-2.774267 -1.59375,-4.34375 -1.55619,-1.569483 -3.29311,-1.59375 -4.28125,-1.59375 l -1.1875,0 c -0.93914,0 -2.63326,-0.0112 -4.21875,1.53125 -1.58549,1.542445 -1.65625,3.300854 -1.65625,4.40625 l 0,0.875 c 0,0.181377 0.0543,0.468844 0.0625,0.6875 -1.15008,-0.331272 -2.42566,-0.59375 -3.875,-0.59375 -1.38817,0 -3.54471,0.07932 -5.8125,1.46875 -0.0242,0.0148 -0.0385,0.04731 -0.0625,0.0625 -0.21723,-0.157594 -0.41112,-0.476899 -0.625,-0.5625 -1.46298,-0.585513 -2.22149,-0.4375 -2.59375,-0.4375 -0.51862,0 -1.60999,-0.165306 -3.21875,0.65625 -0.88441,0.451645 -1.54915,1.177221 -2.0625,1.96875 -0.1819,-0.25989 -0.26146,-0.455631 -0.53125,-0.75 -0.66671,-0.72745 -1.74273,-1.380724 -2.625,-1.625 -0.88227,-0.244276 -1.54341,-0.25 -2.125,-0.25 l -0.375,0 0,-2.15625 c 0,-0.843705 0.0546,-2.418196 -1.40625,-4.03125 C 118.75785,78.168196 116.92624,78 115.78125,78 l -0.6875,0 c -0.96376,0 -2.62213,-0.0176 -4.21875,1.5 -1.59662,1.517596 -1.65625,3.297971 -1.65625,4.34375 l 0,3.09375 c -1.68865,-0.901185 -3.55538,-1.5 -5.59375,-1.5 -2.58348,0 -4.88825,0.639086 -6.78125,1.5625 a 4.2375892,4.2375892 0 0 0 -0.125,0.0625 c -0.279002,0.146843 -0.540559,0.138042 -1.40625,0.84375 -0.06752,0.05504 -0.120284,0.210272 -0.1875,0.28125 -1.627461,-1.66936 -4.096894,-2.5625 -6.5,-2.5625 -1.367681,0 -2.635496,0.38085 -3.8125,0.90625 C 83.772172,86.030953 82.723198,85.75 81.96875,85.75 l -0.59375,0 c -0.998791,0 -2.734194,0.02542 -4.28125,1.59375 -0.773528,0.784163 -1.150875,1.59773 -1.34375,2.34375 l -2.3125,-7.34375 a 4.2375892,4.2375892 0 0 0 0,-0.03125 C 72.961927,80.806521 71.644392,79.177859 70.1875,78.53125 68.730608,77.884641 67.656181,78 67.34375,78 l -2.03125,0 z m 39.78125,14.53125 0,0.03125 c -0.0182,7.52e-4 -0.0741,-8.07e-4 -0.0937,0 0.004,6.94e-4 0.0958,-0.03145 0.0937,-0.03125 z"
         id="path3128"
         style="font-size:26.86761856px;font-style:normal;font-variant:normal;font-weight:bold;font-stretch:normal;text-align:end;line-height:100%;writing-mode:lr-tb;text-anchor:end;fill:#000000;fill-opacity:1;stroke:none;display:inline;font-family:LMSansDemiCond10;-inkscape-font-specification:Andale Mono"
         inkscape:original="M 32.09375 10.25 C 30.833751 10.25 30.46875 10.547751 30.46875 11.84375 L 30.46875 33.59375 C 30.46875 34.853749 30.797751 35.21875 32.09375 35.21875 L 39.96875 35.21875 C 42.488747 35.21875 45.520002 34.460248 47.5 32.15625 C 49.731998 29.636253 50.34375 26.290247 50.34375 22.90625 C 50.34375 19.162254 49.615248 16.361748 48.03125 14.09375 C 46.195252 11.429753 43.069497 10.25 39.9375 10.25 L 32.09375 10.25 z M 102.9375 10.25 C 101.6775 10.25 101.3125 10.547751 101.3125 11.84375 L 101.3125 33.59375 C 101.3125 34.853749 101.6415 35.21875 102.9375 35.21875 L 103.625 35.21875 C 104.885 35.21875 105.21875 34.848999 105.21875 33.625 L 105.21875 11.8125 C 105.21875 10.696501 104.993 10.25 103.625 10.25 L 102.9375 10.25 z M 34.75 12.9375 L 38.75 12.9375 C 46.057993 12.9375 46.0625 19.990253 46.0625 22.90625 C 46.0625 25.786247 46.053243 32.53125 38.78125 32.53125 L 34.75 32.53125 L 34.75 12.9375 z M 60.625 17.6875 C 57.457003 17.6875 53.25 19.497007 53.25 26.625 C 53.25 33.644993 57.503254 35.59375 61.03125 35.59375 C 62.363249 35.59375 63.509001 35.285249 64.625 34.78125 C 65.308999 34.45725 66.875 33.558999 66.875 32.875 C 66.875 32.587 66.81725 31.91775 66.78125 31.59375 C 66.67325 30.909751 66.6725 30.71875 66.3125 30.71875 C 66.1325 30.71875 66.02375 30.81525 65.84375 31.03125 C 64.151752 33.047248 61.943499 33.28125 61.1875 33.28125 C 56.939504 33.28125 56.9375 27.954999 56.9375 26.875 L 65.5 26.875 C 66.651999 26.875 67.09375 26.608499 67.09375 25.3125 C 67.09375 20.380505 64.800996 17.6875 60.625 17.6875 z M 91.90625 17.6875 C 88.738253 17.6875 84.53125 19.497007 84.53125 26.625 C 84.53125 33.644993 88.815754 35.59375 92.34375 35.59375 C 93.675749 35.59375 94.790251 35.285249 95.90625 34.78125 C 96.590249 34.45725 98.15625 33.558999 98.15625 32.875 C 98.15625 32.587 98.0985 31.91775 98.0625 31.59375 C 97.9545 30.909751 97.95375 30.71875 97.59375 30.71875 C 97.41375 30.71875 97.305 30.81525 97.125 31.03125 C 95.433002 33.047248 93.224749 33.28125 92.46875 33.28125 C 88.220754 33.28125 88.21875 27.954999 88.21875 26.875 L 96.8125 26.875 C 97.964499 26.875 98.375 26.608499 98.375 25.3125 C 98.375 20.380505 96.082246 17.6875 91.90625 17.6875 z M 115.75 17.6875 C 113.77 17.6875 111.44 18.337252 110 20.28125 C 108.524 22.225248 108.15625 24.643002 108.15625 26.875 C 108.15625 28.818998 108.4065 31.265252 110.0625 33.28125 C 111.1785 34.613249 113.194 35.59375 115.75 35.59375 C 117.334 35.59375 119.6925 35.179748 121.3125 33.34375 C 123.2205 31.219752 123.34375 28.314999 123.34375 26.875 C 123.34375 25.183002 123.16075 22.342748 121.46875 20.21875 C 119.92075 18.238752 117.586 17.6875 115.75 17.6875 z M 149.96875 17.6875 C 146.80075 17.6875 142.59375 19.497007 142.59375 26.625 C 142.59375 33.644993 146.87825 35.59375 150.40625 35.59375 C 151.73825 35.59375 152.85275 35.285249 153.96875 34.78125 C 154.65275 34.45725 156.25 33.558999 156.25 32.875 C 156.25 32.587 156.161 31.91775 156.125 31.59375 C 156.017 30.909751 156.01625 30.71875 155.65625 30.71875 C 155.47625 30.71875 155.3675 30.81525 155.1875 31.03125 C 153.4955 33.047248 151.3185 33.28125 150.5625 33.28125 C 146.3145 33.28125 146.3125 27.954999 146.3125 26.875 L 154.875 26.875 C 156.027 26.875 156.46875 26.608499 156.46875 25.3125 C 156.46875 20.380505 154.14475 17.6875 149.96875 17.6875 z M 134.65625 17.875 C 132.78425 17.875 131.2675 18.780751 130.1875 19.96875 C 130.1875 18.960751 130.209 18.21875 128.625 18.21875 L 127.9375 18.21875 C 126.6775 18.21875 126.3125 18.547751 126.3125 19.84375 L 126.3125 39.625 C 126.3125 40.884999 126.6415 41.21875 127.9375 41.21875 L 128.71875 41.21875 C 129.97875 41.21875 130.3125 40.880249 130.3125 39.65625 L 130.3125 33.96875 C 131.6085 35.372749 132.73725 35.59375 133.78125 35.59375 C 135.83325 35.59375 137.87925 34.607748 139.03125 32.84375 C 140.32725 30.791752 140.5 28.600248 140.5 26.65625 C 140.5 23.020254 139.48025 17.875 134.65625 17.875 z M 167.90625 17.875 C 166.32225 17.875 164.2315 18.944753 163.1875 21.96875 L 163.125 21.96875 L 163.125 19.59375 C 163.125 18.477751 162.9305 18 161.5625 18 L 161.0625 18 C 159.8025 18 159.4375 18.329001 159.4375 19.625 L 159.4375 33.59375 C 159.4375 34.853749 159.7665 35.21875 161.0625 35.21875 L 161.75 35.21875 C 163.01 35.21875 163.3125 34.848999 163.3125 33.625 L 163.3125 26.375 C 163.3125 23.063003 165.3285 20.99725 167.8125 20.78125 C 168.4245 20.74525 168.46875 20.707749 168.46875 19.84375 L 168.46875 18.8125 C 168.46875 18.056501 168.48225 17.875 167.90625 17.875 z M 70.1875 18.21875 C 69.575501 18.21875 68.9565 18.225001 68.8125 19.125 L 72.90625 33.8125 C 73.30225 35.216499 74.181501 35.21875 74.9375 35.21875 L 76.65625 35.21875 C 77.412249 35.21875 78.26025 35.216499 78.65625 33.8125 L 82.65625 19.65625 C 82.69225 19.51225 82.78125 19.341 82.78125 19.125 C 82.78125 18.225001 81.83825 18.21875 81.40625 18.21875 L 81.09375 18.21875 C 80.121751 18.21875 79.4585 18.350751 79.0625 19.71875 L 75.8125 31.21875 L 72.59375 19.65625 C 72.30575 18.684251 71.961749 18.21875 70.59375 18.21875 L 70.1875 18.21875 z M 60.65625 20 C 63.788247 20 63.928 23.351502 64 25.1875 L 56.96875 25.1875 C 57.11275 22.595503 58.172252 20 60.65625 20 z M 91.9375 20 C 95.069497 20 95.20925 23.351502 95.28125 25.1875 L 88.28125 25.1875 C 88.42525 22.595503 89.453502 20 91.9375 20 z M 115.75 20 C 119.35 20 119.34375 24.061502 119.34375 26.4375 C 119.34375 28.849498 119.35 33.0625 115.75 33.0625 C 112.15 33.0625 112.15625 28.849498 112.15625 26.4375 C 112.15625 24.025502 112.15 20 115.75 20 z M 150.03125 20 C 153.16325 20 153.303 23.351502 153.375 25.1875 L 146.34375 25.1875 C 146.48775 22.595503 147.54725 20 150.03125 20 z M 133.09375 20.375 C 136.51375 20.375 136.5 25.638751 136.5 26.71875 C 136.5 27.726749 136.494 33.28125 132.75 33.28125 C 131.202 33.28125 130.3845 31.983 130.3125 31.875 L 130.3125 21.71875 C 130.9965 20.926751 132.01375 20.375 133.09375 20.375 z M 53.875 46.25 C 52.615001 46.25 52.25 46.547751 52.25 47.84375 L 52.25 69.59375 C 52.25 70.853749 52.579001 71.21875 53.875 71.21875 L 54.96875 71.21875 C 56.228749 71.21875 56.53125 70.848999 56.53125 69.625 L 56.53125 59.875 L 60.3125 59.875 L 65.65625 70.34375 C 66.05225 71.099749 66.143501 71.21875 67.1875 71.21875 L 68.71875 71.21875 C 69.18675 71.21875 69.96875 71.229499 69.96875 70.4375 C 69.96875 70.2935 69.93 70.235 69.75 69.875 L 64.34375 59.5625 C 66.755748 58.878501 69.5 57.250746 69.5 53.21875 C 69.5 49.258754 66.863244 46.25 61.03125 46.25 L 53.875 46.25 z M 56.53125 48.9375 L 60.53125 48.9375 C 64.743246 48.9375 65.40625 50.946002 65.40625 53.25 C 65.40625 55.481998 64.783996 57.5625 60.5 57.5625 L 56.53125 57.5625 L 56.53125 48.9375 z M 79.75 53.6875 C 76.582003 53.6875 72.375 55.497007 72.375 62.625 C 72.375 69.644993 76.628254 71.59375 80.15625 71.59375 C 81.488249 71.59375 82.634001 71.285249 83.75 70.78125 C 84.433999 70.45725 86 69.558999 86 68.875 C 86 68.587 85.94225 67.91775 85.90625 67.59375 C 85.79825 66.909751 85.7975 66.71875 85.4375 66.71875 C 85.2575 66.71875 85.14875 66.81525 84.96875 67.03125 C 83.276752 69.047248 81.068499 69.28125 80.3125 69.28125 C 76.064504 69.28125 76.0625 63.954999 76.0625 62.875 L 84.625 62.875 C 85.776999 62.875 86.21875 62.608499 86.21875 61.3125 C 86.21875 56.380505 83.925996 53.6875 79.75 53.6875 z M 111.03125 53.6875 C 107.86325 53.6875 103.65625 55.497007 103.65625 62.625 C 103.65625 69.644993 107.94075 71.59375 111.46875 71.59375 C 112.80075 71.59375 113.91525 71.285249 115.03125 70.78125 C 115.71525 70.45725 117.28125 69.558999 117.28125 68.875 C 117.28125 68.587 117.2235 67.91775 117.1875 67.59375 C 117.0795 66.909751 117.07875 66.71875 116.71875 66.71875 C 116.53875 66.71875 116.43 66.81525 116.25 67.03125 C 114.558 69.047248 112.34975 69.28125 111.59375 69.28125 C 107.34575 69.28125 107.34375 63.954999 107.34375 62.875 L 115.9375 62.875 C 117.0895 62.875 117.5 62.608499 117.5 61.3125 C 117.5 56.380505 115.20725 53.6875 111.03125 53.6875 z M 161.5 53.6875 C 158.332 53.6875 154.125 55.497007 154.125 62.625 C 154.125 69.644993 158.4095 71.59375 161.9375 71.59375 C 163.2695 71.59375 164.384 71.285249 165.5 70.78125 C 166.184 70.45725 167.78125 69.558999 167.78125 68.875 C 167.78125 68.587 167.69225 67.91775 167.65625 67.59375 C 167.54825 66.909751 167.5475 66.71875 167.1875 66.71875 C 167.0075 66.71875 166.89875 66.81525 166.71875 67.03125 C 165.02675 69.047248 162.84975 69.28125 162.09375 69.28125 C 157.84575 69.28125 157.84375 63.954999 157.84375 62.875 L 166.40625 62.875 C 167.55825 62.875 168 62.608499 168 61.3125 C 168 56.380505 165.676 53.6875 161.5 53.6875 z M 129.25 53.875 C 126.586 53.875 125.11875 55.551252 124.21875 57.53125 L 124.1875 57.53125 L 124.1875 55.59375 C 124.1875 54.477751 123.96175 54 122.59375 54 L 122.03125 54 C 120.77125 54 120.40625 54.329001 120.40625 55.625 L 120.40625 69.59375 C 120.40625 70.853749 120.73525 71.21875 122.03125 71.21875 L 122.8125 71.21875 C 124.0725 71.21875 124.40625 70.848999 124.40625 69.625 L 124.40625 61.03125 C 124.40625 57.755253 126.2455 56.15625 127.9375 56.15625 C 129.4495 56.15625 129.875 57.046502 129.875 59.0625 L 129.875 69.625 C 129.875 70.740999 130.10075 71.21875 131.46875 71.21875 L 132.28125 71.21875 C 133.54125 71.21875 133.875 70.848999 133.875 69.625 L 133.875 58.90625 C 133.875 56.026253 132.958 53.875 129.25 53.875 z M 89.3125 54.21875 C 88.700501 54.21875 88.0815 54.225001 87.9375 55.125 L 92.03125 69.8125 C 92.42725 71.216499 93.306501 71.21875 94.0625 71.21875 L 95.78125 71.21875 C 96.537249 71.21875 97.38525 71.216499 97.78125 69.8125 L 101.78125 55.65625 C 101.81725 55.51225 101.90625 55.341 101.90625 55.125 C 101.90625 54.225001 100.96325 54.21875 100.53125 54.21875 L 100.21875 54.21875 C 99.246751 54.21875 98.5835 54.350751 98.1875 55.71875 L 94.9375 67.21875 L 91.71875 55.65625 C 91.43075 54.684251 91.086749 54.21875 89.71875 54.21875 L 89.3125 54.21875 z M 139.40625 54.21875 C 138.14625 54.21875 137.78125 54.547751 137.78125 55.84375 L 137.78125 66.5625 C 137.78125 70.234496 139.50325 71.59375 143.03125 71.59375 C 143.75125 71.59375 145.97575 71.591247 147.34375 68.53125 L 147.34375 69.625 C 147.34375 70.740999 147.5695 71.21875 148.9375 71.21875 L 149.65625 71.21875 C 150.91625 71.21875 151.25 70.848999 151.25 69.625 L 151.25 55.8125 C 151.25 54.696501 151.02425 54.21875 149.65625 54.21875 L 148.8125 54.21875 C 147.5525 54.21875 147.25 54.588501 147.25 55.8125 L 147.25 64.71875 C 147.25 67.058748 146.3495 69.65625 143.9375 69.65625 C 142.0655 69.65625 141.78125 68.972498 141.78125 66.8125 L 141.78125 55.8125 C 141.78125 54.696501 141.5555 54.21875 140.1875 54.21875 L 139.40625 54.21875 z M 79.78125 56 C 82.913247 56 83.053 59.351502 83.125 61.1875 L 76.09375 61.1875 C 76.23775 58.595503 77.297252 56 79.78125 56 z M 111.0625 56 C 114.1945 56 114.33425 59.351502 114.40625 61.1875 L 107.40625 61.1875 C 107.55025 58.595503 108.5785 56 111.0625 56 z M 161.5625 56 C 164.6945 56 164.83425 59.351502 164.90625 61.1875 L 157.875 61.1875 C 158.019 58.595503 159.0785 56 161.5625 56 z M 65.3125 82.25 C 64.664501 82.25 63.682 82.230501 63.25 83.5625 L 56.3125 105.75 C 56.2765 105.894 56.15625 106.1685 56.15625 106.3125 C 56.15625 107.2125 57.027251 107.21875 57.53125 107.21875 L 58.09375 107.21875 C 59.677748 107.21875 59.90425 106.57325 60.15625 105.78125 L 61.65625 101.0625 L 70.375 101.0625 L 71.5625 104.90625 C 72.138499 106.74225 72.322252 107.21875 73.90625 107.21875 L 75.125 107.21875 C 75.628999 107.21875 76.5 107.2125 76.5 106.3125 C 76.5 106.3125 76.48775 106.2085 76.34375 105.8125 L 69.40625 83.59375 C 68.97425 82.225751 68.063749 82.25 67.34375 82.25 L 65.3125 82.25 z M 115.09375 82.25 C 113.83375 82.25 113.46875 82.547751 113.46875 83.84375 L 113.46875 105.59375 C 113.46875 106.85375 113.79775 107.21875 115.09375 107.21875 L 115.78125 107.21875 C 117.04125 107.21875 117.375 106.849 117.375 105.625 L 117.375 83.8125 C 117.375 82.696501 117.14925 82.25 115.78125 82.25 L 115.09375 82.25 z M 151.34375 82.78125 C 150.11975 82.78125 149.71875 83.064751 149.71875 84.46875 L 149.71875 85.34375 C 149.71875 86.639749 150.04775 87.03125 151.34375 87.03125 L 152.53125 87.03125 C 153.79125 87.03125 154.15625 86.675749 154.15625 85.34375 L 154.15625 84.46875 C 154.15625 83.100751 153.79125 82.78125 152.53125 82.78125 L 151.34375 82.78125 z M 66 86.0625 L 66.03125 86.0625 C 66.24725 87.430499 67.13525 90.386751 67.53125 91.71875 L 69.5625 98.375 L 62.5 98.375 L 64.59375 91.40625 C 65.241749 89.246252 65.856 87.142499 66 86.0625 z M 103.625 89.6875 C 101.609 89.6875 100.1635 90.092501 98.6875 90.8125 C 98.003501 91.1725 97.8125 91.229 97.8125 91.625 C 97.8125 91.877 97.9015 92.6495 97.9375 92.9375 C 98.0095 93.765499 98.04625 93.96875 98.40625 93.96875 C 98.58625 93.96875 98.60875 93.949 98.96875 93.625 C 100.44475 92.185001 102.10075 91.8125 103.46875 91.8125 C 104.26075 91.8125 105.875 91.815754 105.875 95.34375 L 105.875 96.0625 C 105.875 96.674499 105.86 96.714 105.5 96.75 C 103.952 96.822 96.5 97.140755 96.5 102.46875 C 96.5 105.06075 98.379503 107.59375 101.1875 107.59375 C 103.7795 107.59375 105.424 105.794 106 104.75 L 106 105.625 C 106 106.741 106.1945 107.21875 107.5625 107.21875 L 108.28125 107.21875 C 109.54125 107.21875 109.875 106.849 109.875 105.625 L 109.875 95.3125 C 109.875 91.964503 107.981 89.6875 103.625 89.6875 z M 141.65625 89.6875 C 139.53225 89.6875 136.0625 90.178005 136.0625 94.75 C 136.0625 98.961996 139.9635 99.84175 141.1875 100.09375 C 142.5915 100.41775 144.125 100.734 144.125 102.75 C 144.125 104.946 142.597 105.09375 141.625 105.09375 C 140.545 105.09375 138.80275 104.80275 137.21875 103.21875 C 136.85875 102.85875 136.80025 102.875 136.65625 102.875 C 136.33225 102.875 136.25 103.17325 136.25 103.28125 C 136.178 103.49725 135.84375 105.26225 135.84375 105.40625 C 135.84375 106.09025 137.6115 106.75275 138.1875 106.96875 C 139.8795 107.58075 141.2195 107.59375 141.6875 107.59375 C 145.3955 107.59375 147.21875 105.7155 147.21875 102.1875 C 147.21875 100.8195 146.80625 99.512749 145.90625 98.46875 C 144.64625 97.064751 143.49775 96.81925 142.09375 96.53125 C 140.50975 96.17125 139.15625 95.867248 139.15625 94.03125 C 139.15625 92.411252 140.0695 91.90625 141.4375 91.90625 C 143.7055 91.90625 144.888 92.928751 145.5 93.46875 C 145.68 93.61275 145.76225 93.65625 145.90625 93.65625 C 146.23025 93.65625 146.26225 93.479499 146.40625 92.6875 C 146.47825 92.4715 146.65625 91.48775 146.65625 91.34375 C 146.65625 91.05575 146.62625 91.01625 145.90625 90.65625 C 144.79025 90.080251 143.63625 89.6875 141.65625 89.6875 z M 162.59375 89.6875 C 160.46975 89.6875 157.03125 90.178005 157.03125 94.75 C 157.03125 98.961996 160.901 99.84175 162.125 100.09375 C 163.529 100.41775 165.09375 100.734 165.09375 102.75 C 165.09375 104.946 163.5345 105.09375 162.5625 105.09375 C 161.4825 105.09375 159.7715 104.80275 158.1875 103.21875 C 157.8275 102.85875 157.73775 102.875 157.59375 102.875 C 157.26975 102.875 157.1875 103.17325 157.1875 103.28125 C 157.1155 103.49725 156.8125 105.26225 156.8125 105.40625 C 156.8125 106.09025 158.58025 106.75275 159.15625 106.96875 C 160.84825 107.58075 162.157 107.59375 162.625 107.59375 C 166.333 107.59375 168.1875 105.7155 168.1875 102.1875 C 168.1875 100.8195 167.74375 99.512749 166.84375 98.46875 C 165.58375 97.064751 164.43525 96.81925 163.03125 96.53125 C 161.44725 96.17125 160.125 95.867248 160.125 94.03125 C 160.125 92.411252 161.007 91.90625 162.375 91.90625 C 164.643 91.90625 165.8255 92.928751 166.4375 93.46875 C 166.6175 93.61275 166.69975 93.65625 166.84375 93.65625 C 167.16775 93.65625 167.19975 93.479499 167.34375 92.6875 C 167.41575 92.4715 167.59375 91.48775 167.59375 91.34375 C 167.59375 91.05575 167.56375 91.01625 166.84375 90.65625 C 165.72775 90.080251 164.57375 89.6875 162.59375 89.6875 z M 88.625 89.875 C 85.961003 89.875 84.493749 91.551252 83.59375 93.53125 L 83.53125 93.53125 L 83.53125 91.59375 C 83.53125 90.477751 83.336749 90 81.96875 90 L 81.375 90 C 80.115001 90 79.78125 90.329001 79.78125 91.625 L 79.78125 105.59375 C 79.78125 106.85375 80.079001 107.21875 81.375 107.21875 L 82.1875 107.21875 C 83.447499 107.21875 83.75 106.849 83.75 105.625 L 83.75 97.03125 C 83.75 93.755253 85.589252 92.15625 87.28125 92.15625 C 88.793248 92.15625 89.21875 93.046502 89.21875 95.0625 L 89.21875 105.625 C 89.21875 106.741 89.444501 107.21875 90.8125 107.21875 L 91.65625 107.21875 C 92.916249 107.21875 93.21875 106.849 93.21875 105.625 L 93.21875 94.90625 C 93.21875 92.026253 92.332996 89.875 88.625 89.875 z M 121.5625 90.21875 C 121.0225 90.21875 120.25 90.229751 120.25 91.09375 C 120.25 91.09375 120.22625 91.282 120.40625 91.75 L 126.15625 106.71875 C 126.30025 107.15075 126.28125 107.25 126.28125 107.25 C 126.28125 107.61 125.6895 109.4165 125.4375 109.8125 C 125.1495 110.3165 124.438 111.03125 123.25 111.03125 C 122.998 111.03125 122.1955 110.99925 121.1875 110.53125 C 121.0075 110.45925 120.9375 110.4375 120.9375 110.4375 C 120.6855 110.4375 120.5 110.5775 120.5 110.9375 C 120.5 111.2255 120.6325 113.07475 120.8125 113.21875 C 121.1005 113.43475 122.49875 113.59375 123.21875 113.59375 C 126.02675 113.59375 127.994 111.5465 128.75 109.0625 L 133.875 91.8125 C 134.055 91.272501 134.0625 91.125 134.0625 91.125 C 134.0625 90.225001 133.2825 90.21875 132.5625 90.21875 C 131.5185 90.21875 130.8335 90.216251 130.4375 91.65625 L 129.09375 96.3125 C 127.97775 100.1645 127.697 102.10475 127.625 102.96875 C 127.589 102.17675 127.541 100.54774 124.625 92.84375 C 123.797 90.611752 123.656 90.21875 122 90.21875 L 121.5625 90.21875 z M 151.59375 90.21875 C 150.33375 90.21875 149.96875 90.547751 149.96875 91.84375 L 149.96875 105.59375 C 149.96875 106.85375 150.29775 107.21875 151.59375 107.21875 L 152.28125 107.21875 C 153.54125 107.21875 153.875 106.849 153.875 105.625 L 153.875 91.8125 C 153.875 90.696501 153.64925 90.21875 152.28125 90.21875 L 151.59375 90.21875 z M 105.875 98 L 105.875 101.625 C 105.875 104.901 103.2995 105.28125 102.6875 105.28125 C 101.2475 105.28125 100.25 103.91825 100.25 102.40625 C 100.25 98.734254 104.147 98.108 105.875 98 z "
         inkscape:radius="4.2371655"
         sodipodi:type="inkscape:offset" />
      <text
         sodipodi:linespacing="100%"
         transform="scale(1.0353188,0.96588607)"
         id="text2971-2"
         y="35.219616"
         x="168.94682"
         style="font-size:26.86761856px;font-style:normal;font-variant:normal;font-weight:bold;font-stretch:normal;text-align:end;line-height:100%;writing-mode:lr-tb;text-anchor:end;fill:#8cff8c;fill-opacity:1;stroke:none;display:inline;font-family:LMSansDemiCond10;-inkscape-font-specification:Andale Mono"
         xml:space="preserve"><tspan
           style="font-size:36px;fill:#8cff8c;fill-opacity:1"
           y="35.219616"
           x="168.94682"
           id="tspan2973-3"
           sodipodi:role="line">Developer</tspan><tspan
           style="font-size:36px;fill:#8cff8c;fill-opacity:1"
           id="tspan2975-8"
           y="71.21962"
           x="168.94682"
           sodipodi:role="line">Revenue</tspan><tspan
           style="font-size:36px;fill:#8cff8c;fill-opacity:1"
           id="tspan2977-0"
           y="107.21962"
           x="168.94682"
           sodipodi:role="line">Analysis</tspan></text>
    </g>
  </g>
  <g
     inkscape:label="Layer 1"
     inkscape:groupmode="layer"
     id="layer1"
     transform="translate(0,-932.36218)"
     style="display:inline">
    <flowRoot
       xml:space="preserve"
       id="flowRoot2958"
       style="font-size:40px;font-style:normal;font-weight:normal;fill:#000000;fill-opacity:1;stroke:none;font-family:Bitstream Vera Sans"
       transform="translate(0,932.36218)"><flowRegion
         id="flowRegion2960"><rect
           id="rect2962"
           width="97.984795"
           height="46.972092"
           x="237.38585"
           y="-39.604103" /></flowRegion><flowPara
         id="flowPara2964"></flowPara></flowRoot>    <image
       y="955.54877"
       x="1.2142867"
       id="image3990"
       height="96.384857"
       width="74.46788"
       xlink:href="file:///home/kostmo/android/projects/MarketRevenuePlus/graphics/posterized_mascot.png" />
  </g>
</svg>
