<?xml version="1.0" encoding="UTF-8" standalone="no"?>
<!-- Created with Inkscape (http://www.inkscape.org/) -->

<svg
   xmlns:dc="http://purl.org/dc/elements/1.1/"
   xmlns:cc="http://creativecommons.org/ns#"
   xmlns:rdf="http://www.w3.org/1999/02/22-rdf-syntax-ns#"
   xmlns:svg="http://www.w3.org/2000/svg"
   xmlns="http://www.w3.org/2000/svg"
   xmlns:xlink="http://www.w3.org/1999/xlink"
   xmlns:sodipodi="http://sodipodi.sourceforge.net/DTD/sodipodi-0.dtd"
   xmlns:inkscape="http://www.inkscape.org/namespaces/inkscape"
   width="698.40033"
   height="515.39594"
   id="svg2"
   version="1.1"
   inkscape:version="0.48.0 r9654"
   sodipodi:docname="logo.svg"
   inkscape:export-filename="/home/kostmo/android/projects/chartdroid/trunk/commute/graphics/logo.png"
   inkscape:export-xdpi="90"
   inkscape:export-ydpi="90">
  <defs
     id="defs4">
    <inkscape:perspective
       sodipodi:type="inkscape:persp3d"
       inkscape:vp_x="0 : 0.5 : 1"
       inkscape:vp_y="0 : 1000 : 0"
       inkscape:vp_z="1 : 0.5 : 1"
       inkscape:persp3d-origin="0.5 : 0.33333333 : 1"
       id="perspective3608" />
    <inkscape:perspective
       id="perspective10"
       inkscape:persp3d-origin="372.04724 : 350.78739 : 1"
       inkscape:vp_z="744.09448 : 526.18109 : 1"
       inkscape:vp_y="0 : 1000 : 0"
       inkscape:vp_x="0 : 526.18109 : 1"
       sodipodi:type="inkscape:persp3d" />
    <inkscape:perspective
       id="perspective3289"
       inkscape:persp3d-origin="300 : 400 : 1"
       inkscape:vp_z="700 : 600 : 1"
       inkscape:vp_y="0 : 1000 : 0"
       inkscape:vp_x="-50 : 600 : 1"
       sodipodi:type="inkscape:persp3d" />
    <inkscape:perspective
       id="perspective3289-0"
       inkscape:persp3d-origin="300 : 400 : 1"
       inkscape:vp_z="700 : 600 : 1"
       inkscape:vp_y="0 : 1000 : 0"
       inkscape:vp_x="-50 : 600 : 1"
       sodipodi:type="inkscape:persp3d" />
  </defs>
  <sodipodi:namedview
     id="base"
     pagecolor="#00ffff"
     bordercolor="#666666"
     borderopacity="1.0"
     inkscape:pageopacity="0"
     inkscape:pageshadow="2"
     inkscape:zoom="1.4509543"
     inkscape:cx="353.33525"
     inkscape:cy="263.20337"
     inkscape:document-units="px"
     inkscape:current-layer="g3289"
     showgrid="false"
     fit-margin-top="0"
     fit-margin-left="0"
     fit-margin-right="0"
     fit-margin-bottom="0"
     inkscape:window-width="1920"
     inkscape:window-height="970"
     inkscape:window-x="0"
     inkscape:window-y="49"
     inkscape:window-maximized="1" />
  <metadata
     id="metadata7">
    <rdf:RDF>
      <cc:Work
         rdf:about="">
        <dc:format>image/svg+xml</dc:format>
        <dc:type
           rdf:resource="http://purl.org/dc/dcmitype/StillImage" />
        <dc:title></dc:title>
      </cc:Work>
    </rdf:RDF>
  </metadata>
  <g
     inkscape:label="Layer 1"
     inkscape:groupmode="layer"
     id="layer1"
     transform="translate(111.63621,-7.8396471)">
    <g
       id="g4085"
       transform="translate(0,-515.39594)">
      <path
         transform="matrix(11.006941,0,0,11.006941,-87.35107,553.09148)"
         d="m 50,22.362183 c 0,11.045695 -8.954305,20 -20,20 -11.045695,0 -20,-8.954305 -20,-20 0,-11.045695 8.954305,-20.0000004 20,-20.0000004 11.045695,0 20,8.9543054 20,20.0000004 z"
         sodipodi:ry="20"
         sodipodi:rx="20"
         sodipodi:cy="22.362183"
         sodipodi:cx="30"
         id="path2822"
         style="fill:#fbffba;fill-opacity:1;stroke:#cbc000;stroke-width:3.4999733;stroke-miterlimit:4;stroke-opacity:1;stroke-dasharray:none"
         sodipodi:type="arc" />
      <path
         inkscape:connector-curvature="0"
         sodipodi:nodetypes="cc"
         id="path3598"
         d="m 242.85716,634.12659 0,165.10412"
         style="fill:#ffccaa;stroke:#998f00;stroke-width:16.51041222;stroke-linecap:round;stroke-linejoin:round;stroke-miterlimit:4;stroke-opacity:1;stroke-dasharray:none" />
      <path
         inkscape:connector-curvature="0"
         inkscape:transform-center-x="2.8990745"
         inkscape:transform-center-y="-6.9170341"
         sodipodi:nodetypes="cc"
         id="path3598-1"
         d="m 179.03728,646.95993 63.81988,152.27078"
         style="fill:#ffccaa;stroke:#998f00;stroke-width:13.20833015;stroke-linecap:round;stroke-linejoin:round;stroke-miterlimit:4;stroke-opacity:1;stroke-dasharray:none" />
      <path
         inkscape:connector-curvature="0"
         inkscape:transform-center-x="-14"
         id="path3624"
         d="m 407.96127,799.23071 -22.01388,0"
         style="fill:#ffccaa;stroke:#998f00;stroke-width:6.96140051px;stroke-linecap:butt;stroke-linejoin:miter;stroke-opacity:1" />
      <use
         inkscape:transform-center-y="-7.0000005"
         height="1052.3622"
         width="744.09448"
         transform="matrix(0.8660254,-0.5,0.5,0.8660254,-367.07867,228.50519)"
         id="use3666"
         inkscape:transform-center-x="-12.124355"
         xlink:href="#path3624"
         y="0"
         x="0"
         style="fill:#ffccaa;stroke:#998f00;stroke-opacity:1" />
      <use
         height="1052.3622"
         width="744.09448"
         transform="matrix(0.8660254,-0.5,0.5,0.8660254,-367.07867,228.50519)"
         id="use3668"
         inkscape:transform-center-y="-12.124356"
         inkscape:transform-center-x="-6.9999986"
         xlink:href="#use3666"
         y="0"
         x="0"
         style="fill:#ffccaa;stroke:#998f00;stroke-opacity:1" />
      <use
         height="1052.3622"
         width="744.09448"
         transform="matrix(0.8660254,-0.5,0.5,0.8660254,-367.07866,228.50519)"
         id="use3670"
         inkscape:transform-center-y="-14"
         xlink:href="#use3668"
         y="0"
         x="0"
         style="fill:#ffccaa;stroke:#998f00;stroke-opacity:1" />
      <use
         inkscape:transform-center-x="7.0000006"
         height="1052.3622"
         width="744.09448"
         transform="matrix(0.8660254,-0.5,0.5,0.8660254,-367.07867,228.50519)"
         id="use3672"
         inkscape:transform-center-y="-12.124356"
         xlink:href="#use3670"
         y="0"
         x="0"
         style="fill:#ffccaa;stroke:#998f00;stroke-opacity:1" />
      <use
         height="1052.3622"
         width="744.09448"
         transform="matrix(0.8660254,-0.5,0.5,0.8660254,-367.07867,228.50519)"
         id="use3674"
         inkscape:transform-center-y="-7"
         inkscape:transform-center-x="12.124357"
         xlink:href="#use3672"
         y="0"
         x="0"
         style="fill:#ffccaa;stroke:#998f00;stroke-opacity:1" />
      <use
         height="1052.3622"
         width="744.09448"
         transform="matrix(0.8660254,-0.5,0.5,0.8660254,-367.07867,228.50519)"
         id="use3676"
         inkscape:transform-center-x="14.000002"
         xlink:href="#use3674"
         y="0"
         x="0"
         style="fill:#ffccaa;stroke:#998f00;stroke-opacity:1" />
      <use
         inkscape:transform-center-y="7.0000005"
         height="1052.3622"
         width="744.09448"
         transform="matrix(0.8660254,-0.5,0.5,0.8660254,-367.07867,228.50519)"
         id="use3678"
         inkscape:transform-center-x="12.124358"
         xlink:href="#use3676"
         y="0"
         x="0"
         style="fill:#ffccaa;stroke:#998f00;stroke-opacity:1" />
      <use
         height="1052.3622"
         width="744.09448"
         transform="matrix(0.8660254,-0.5,0.5,0.8660254,-367.07867,228.5052)"
         id="use3680"
         inkscape:transform-center-y="12.124358"
         inkscape:transform-center-x="7.000002"
         xlink:href="#use3678"
         y="0"
         x="0"
         style="fill:#ffccaa;stroke:#998f00;stroke-opacity:1" />
      <use
         height="1052.3622"
         width="744.09448"
         transform="matrix(0.8660254,-0.5,0.5,0.8660254,-367.07867,228.50519)"
         id="use3682"
         inkscape:transform-center-y="14.000002"
         xlink:href="#use3680"
         y="0"
         x="0"
         style="fill:#ffccaa;stroke:#998f00;stroke-opacity:1" />
      <use
         inkscape:transform-center-x="-7.0000008"
         height="1052.3622"
         width="744.09448"
         transform="matrix(0.8660254,-0.5,0.5,0.8660254,-367.07867,228.50519)"
         id="use3684"
         inkscape:transform-center-y="12.124357"
         xlink:href="#use3682"
         y="0"
         x="0"
         style="fill:#ffccaa;stroke:#998f00;stroke-opacity:1" />
      <use
         height="1052.3622"
         width="744.09448"
         transform="matrix(0.8660254,-0.5,0.5,0.8660254,-367.07867,228.50519)"
         id="use3686"
         inkscape:transform-center-y="7.0000005"
         inkscape:transform-center-x="-12.124357"
         xlink:href="#use3684"
         y="0"
         x="0"
         style="fill:#ffccaa;stroke:#998f00;stroke-opacity:1" />
      <rect
         ry="3.4038053"
         inkscape:transform-center-y="-28.341734"
         y="538.3598"
         x="222.20882"
         height="28.359627"
         width="41.296688"
         id="rect3688"
         style="fill:#ffccaa;fill-opacity:1;stroke:#998f00;stroke-width:30.24843025;stroke-linecap:round;stroke-linejoin:round;stroke-miterlimit:4;stroke-opacity:1;stroke-dasharray:none" />
      <rect
         transform="matrix(0.8660254,-0.5,0.5,0.8660254,0,0)"
         style="fill:#ffccaa;fill-opacity:1;stroke:#998f00;stroke-width:27.51735306;stroke-linecap:round;stroke-linejoin:round;stroke-miterlimit:4;stroke-opacity:1;stroke-dasharray:none"
         id="use3694"
         width="44.027763"
         height="22.013889"
         x="-211.30876"
         y="560.42303"
         inkscape:transform-center-y="-22" />
      <rect
         transform="matrix(0.8660254,0.5,-0.5,0.8660254,0,0)"
         style="fill:#ffccaa;fill-opacity:1;stroke:#998f00;stroke-width:27.51735306;stroke-linecap:round;stroke-linejoin:round;stroke-miterlimit:4;stroke-opacity:1;stroke-dasharray:none"
         id="use3696"
         width="44.027763"
         height="22.013889"
         x="587.92194"
         y="317.56586"
         inkscape:transform-center-y="-22" />
    </g>
    <g
       id="g3289"
       transform="matrix(0.94419754,0,0,0.94419754,676.44685,-425.23304)">
      <g
         id="g3083"
         transform="translate(-4.3796019,-59.124626)">
        <path
           d="m -561.03125,756.25 c -29.16029,0.49774 -56.42567,3.6264 -82.15625,8.75 a 12.929146,12.929146 0 0 0 -0.625,0.15625 c -34.69313,8.7624 -71.36232,29.08404 -105.9375,45.15625 l -48.3125,6.28125 a 12.929146,12.929146 0 0 0 -1.09375,0.1875 c -7.30463,1.59723 -12.12337,7.13549 -14.78125,12.1875 -2.65788,5.05201 -4.08416,10.45767 -5.1875,16.625 -1.92574,10.76427 -2.50914,24.32652 -2.53125,39.65625 -1.27131,1.29903 -2.46852,2.65997 -3.34375,4.1875 -2.47627,4.32179 -3.3966,8.42169 -4.375,13.34375 a 12.929146,12.929146 0 0 0 -0.1875,3.8125 l 2.15625,21.34375 -0.46875,0.625 a 12.929146,12.929146 0 0 0 -2.03125,10.59375 c 2.82346,11.40221 11.51551,17.97142 25.625,26.34375 a 12.929146,12.929146 0 0 0 4.84375,1.6875 l 47.75,6.5625 31.3125,4.53125 a 12.929146,12.929146 0 0 0 1.84375,0.15625 l 1.09375,0 c 21.07547,51.5071 100.39082,50.8963 124.40625,6.15625 l 12.1875,0.375 a 12.929146,12.929146 0 0 0 10.21875,-4.5 l 261.625,2.5625 a 12.929146,12.929146 0 0 0 2.34375,-0.1875 l 6.21875,-1.09375 c 13.15029,19.0712 35.73758,29.1529 57.9375,30.0938 23.33214,0.9888 48.0622,-9.0361 60.75,-31.31255 l 6.15625,-1.625 46.9375,-5.78125 a 12.929146,12.929146 0 0 0 3.28125,-0.875 l 24.21875,-9.8125 a 12.929146,12.929146 0 0 0 8.09375,-11.59375 l 0.625,-22.6875 c 1.256688,-5.78826 2.211364,-11.42909 1.6875,-17.5 -0.396248,-4.592 -2.600872,-10.30516 -6.59375,-14.59375 -3.5569,-12.27494 -9.56617,-23.02195 -16.625,-32.5 a 12.929146,12.929146 0 0 0 -0.84375,-1 c -7.98539,-8.71758 -17.70053,-11.23177 -30.59375,-15 -12.89322,-3.76823 -28.57972,-7.1177 -45.28125,-10.0625 -32.14961,-5.6686 -67.66253,-9.7691 -92.59375,-11.59375 -36.01963,-21.89843 -73.41978,-40.57151 -111.15625,-58 a 12.929146,12.929146 0 0 0 -1.3125,-0.5 C -440.69126,752.42945 -504.23478,757.14873 -560.59375,756.25 a 12.929146,12.929146 0 0 0 -0.4375,0 z m 41.34375,36.09375 5.96875,33.75 -70.03125,-2.4375 -3.15625,-26.9375 c 20.6674,-3.34857 43.46868,-4.31901 67.21875,-4.375 z m 48.6875,1.125 c 11.13093,0.49952 22.05185,1.22878 32.34375,2.875 0.0718,0.0115 0.14697,0.0197 0.21875,0.0312 20.57919,3.71122 39.95419,11.69274 58.40625,23.9375 -0.57261,0.78201 -1.14719,1.56352 -1.625,2.40625 -1.41242,2.49116 -2.24674,5.33626 -2.5625,8.34375 l -73.375,-3 -0.15625,0 c -0.76176,-0.0208 -0.96026,0.0124 -1.0625,0.0312 L -471,793.46875 z m -145.4375,10.375 2.25,18.78125 -26.1875,-0.90625 a 12.929146,12.929146 0 0 0 -1,0 c -2.46962,0.1105 -2.87674,-0.2997 -3.09375,-0.46875 -0.16261,-0.12667 -0.69181,-0.94576 -1.28125,-2.59375 0.21523,-0.10681 0.26104,-0.0878 1.15625,-0.6875 a 12.929146,12.929146 0 0 0 0.28125,-0.21875 c 8.28905,-5.87974 17.6653,-10.36003 27.875,-13.90625 z M -239.28125,918.875 c 14.44038,0 25.875,11.43461 25.875,25.875 0,14.44042 -11.43462,25.875 -25.875,25.875 -14.44045,0 -25.875,-11.43456 -25.875,-25.875 0,-14.44041 11.43456,-25.875 25.875,-25.875 z m -414.40625,4.90625 c 14.42794,0 25.875,11.46579 25.875,25.90625 0,14.44046 -11.4345,25.875 -25.875,25.875 -14.44033,0 -25.90625,-11.44716 -25.90625,-25.875 0,-14.42784 11.47849,-25.90625 25.90625,-25.90625 z"
           inkscape:href="#path2220"
           id="path3074"
           style="fill:#d40000;fill-rule:evenodd;stroke:none;display:inline"
           xlink:href="#path2220"
           inkscape:original="M -560.8125 769.1875 C -589.18801 769.67184 -615.65172 772.70847 -640.65625 777.6875 C -673.21501 785.91083 -710.35228 806.3831 -746 822.84375 L -796.40625 829.40625 C -806.12963 831.53237 -809.18294 855.79033 -808.8125 891.5625 C -813.28805 893.59828 -814.92605 896.45113 -816.6875 905.3125 L -814.0625 931.46875 L -817.34375 936.0625 C -816.16335 940.8294 -810.70996 946.6477 -797.6875 954.375 L -749.9375 960.9375 L -718.53125 965.5 L -708.0625 965.5 C -695.69294 1018.5049 -615.43083 1014.5698 -601.375 971.40625 L -580.4375 972.0625 L -577.15625 967.46875 L -308.875 970.09375 L -293.8125 967.46875 C -275.36707 1006.474 -208.46136 1011.7222 -190.4375 969.4375 L -178 966.15625 L -130.21875 960.28125 L -106 950.46875 L -105.34375 926.90625 C -102.73478 915.35387 -102.2974 905.95957 -108.625 903.34375 C -111.3616 891.40604 -117.12292 880.97682 -124.34375 871.28125 C -138.82501 855.47218 -238.46409 841.89356 -287.28125 838.5625 C -323.50004 816.33111 -361.3893 797.41634 -399.84375 779.65625 C -440.21784 766.20147 -503.71284 770.09804 -560.8125 769.1875 z M -518.90625 779.40625 C -515.57013 779.40225 -512.22472 779.38925 -508.875 779.40625 L -499.625 831.6875 C -498.90542 837.92677 -502.69031 838.50829 -506.34375 839.28125 L -595.28125 836.1875 L -601.1875 786.09375 C -575.85056 780.51053 -547.70337 779.45305 -518.90625 779.40625 z M -489.46875 779.84375 C -471.48329 780.26867 -453.57793 780.8525 -436.375 783.625 C -407.04781 788.86947 -379.9469 802.06908 -355 822.84375 C -368.29516 819.2388 -379.12914 835.78715 -365.96875 844.75 L -458.28125 840.96875 C -464.63671 840.63225 -468.10747 837.71563 -470.5 833.8125 L -489.46875 779.84375 z M -605.4375 787.0625 L -599.53125 836.0625 L -640.8125 834.625 C -650.05393 835.03849 -656.43741 830.69713 -658.9375 819.875 C -659.15742 815.13762 -657.17628 810.83315 -651.78125 807.21875 C -638.16829 797.56256 -622.48601 791.2218 -605.4375 787.0625 z M -795.1875 833.375 C -789.27658 837.71446 -782.49832 839.50262 -780.0625 854 C -779.04074 862.28729 -779.20539 870.5877 -780.15625 878.875 L -804.90625 879.0625 C -804.59773 855.35908 -802.77265 836.08804 -795.1875 833.375 z M -630.84375 855.5625 L -607.40625 855.5625 C -605.54366 855.5625 -604.03125 857.07495 -604.03125 858.9375 C -604.03125 860.8001 -605.54366 862.28125 -607.40625 862.28125 L -630.84375 862.28125 C -632.70634 862.28125 -634.1875 860.8001 -634.1875 858.9375 C -634.1875 857.07495 -632.70634 855.5625 -630.84375 855.5625 z M -469.21875 859.4375 L -445.78125 859.4375 C -443.91866 859.4375 -442.40625 860.94995 -442.40625 862.8125 C -442.40625 864.67505 -443.91866 866.15625 -445.78125 866.15625 L -469.21875 866.15625 C -471.08135 866.15625 -472.5625 864.67505 -472.5625 862.8125 C -472.5625 860.94995 -471.08135 859.4375 -469.21875 859.4375 z M -134.46875 876.375 C -126.71768 882.43125 -121.71316 889.83743 -117.84375 898.1875 L -168 897.84375 L -160.25 881.65625 C -158.95184 879.98603 -157.43763 878.44426 -153.875 877.90625 L -134.46875 876.375 z M -239.28125 905.9375 C -217.85059 905.9375 -200.46875 923.31932 -200.46875 944.75 C -200.46875 966.1807 -217.85059 983.5625 -239.28125 983.5625 C -260.71196 983.5625 -278.09375 966.1807 -278.09375 944.75 C -278.09375 923.31932 -260.71196 905.9375 -239.28125 905.9375 z M -653.6875 910.84375 C -632.25675 910.84375 -614.875 928.2568 -614.875 949.6875 C -614.875 971.1182 -632.25675 988.5 -653.6875 988.5 C -675.11812 988.5 -692.53125 971.1182 -692.53125 949.6875 C -692.53125 928.2568 -675.11812 910.84375 -653.6875 910.84375 z "
           inkscape:radius="12.927854"
           sodipodi:type="inkscape:offset" />
        <rect
           style="fill:#ffffff"
           id="rect3242"
           width="51.51778"
           height="21.213203"
           x="-642.9621"
           y="849.32153" />
        <rect
           style="fill:#ffffff"
           id="rect3242-1"
           width="51.51778"
           height="21.213203"
           x="-482.85294"
           y="853.86719" />
        <g
           id="g3076">
          <path
             transform="translate(-121.72338,482.66165)"
             d="m -479.31739,464.13959 c 0,27.89459 -22.61303,50.50762 -50.50762,50.50762 -27.89459,0 -50.50763,-22.61303 -50.50763,-50.50762 0,-27.89459 22.61304,-50.50763 50.50763,-50.50763 27.89459,0 50.50762,22.61304 50.50762,50.50763 z"
             sodipodi:ry="50.507626"
             sodipodi:rx="50.507626"
             sodipodi:cy="464.13959"
             sodipodi:cx="-529.82501"
             id="path3220"
             style="fill:#ffffff"
             sodipodi:type="arc" />
          <path
             transform="translate(289.91379,476.60074)"
             d="m -479.31739,464.13959 c 0,27.89459 -22.61303,50.50762 -50.50762,50.50762 -27.89459,0 -50.50763,-22.61303 -50.50763,-50.50762 0,-27.89459 22.61304,-50.50763 50.50763,-50.50763 27.89459,0 50.50762,22.61304 50.50762,50.50763 z"
             sodipodi:ry="50.507626"
             sodipodi:rx="50.507626"
             sodipodi:cy="464.13959"
             sodipodi:cx="-529.82501"
             id="path3220-4"
             style="fill:#ffffff"
             sodipodi:type="arc" />
          <path
             transform="translate(-139.40105,480.64135)"
             d="m 21.71828,416.66241 c 0,15.34203 -12.4371693,27.7792 -27.7791955,27.7792 -15.3420265,0 -27.7791955,-12.43717 -27.7791955,-27.7792 0,-15.34202 12.437169,-27.77919 27.7791955,-27.77919 15.3420262,0 27.7791955,12.43717 27.7791955,27.77919 z"
             sodipodi:ry="27.779196"
             sodipodi:rx="27.779196"
             sodipodi:cy="416.66241"
             sodipodi:cx="-6.0609155"
             id="path3264"
             style="fill:#ffffff"
             sodipodi:type="arc" />
          <path
             transform="matrix(0.43636365,0,0,0.43636365,-788.30468,662.45443)"
             d="m 21.71828,416.66241 c 0,15.34203 -12.4371693,27.7792 -27.7791955,27.7792 -15.3420265,0 -27.7791955,-12.43717 -27.7791955,-27.7792 0,-15.34202 12.437169,-27.77919 27.7791955,-27.77919 15.3420262,0 27.7791955,12.43717 27.7791955,27.77919 z"
             sodipodi:ry="27.779196"
             sodipodi:rx="27.779196"
             sodipodi:cy="416.66241"
             sodipodi:cx="-6.0609155"
             id="path3264-5"
             style="fill:#ffffff"
             sodipodi:type="arc" />
          <rect
             y="846.29102"
             x="-805.09155"
             height="35.860416"
             width="26.263966"
             id="rect3286"
             style="fill:#ffffff" />
        </g>
        <path
           inkscape:connector-curvature="0"
           id="path2220"
           style="fill:#000000;fill-rule:evenodd;stroke:none;display:inline"
           d="m -808.8256,891.56536 c -0.37044,-35.77217 2.71011,-60.04129 12.43349,-62.16741 l 50.38839,-6.54395 c 35.64772,-16.46065 72.79865,-36.92986 105.35741,-45.15319 25.00453,-4.97903 51.46059,-8.02279 79.8361,-8.50713 57.09966,0.91054 120.60687,-2.98447 160.98096,10.47031 38.45445,17.76009 76.33696,36.66408 112.55575,58.89547 48.81716,3.33106 148.46295,16.91067 162.94421,32.71974 7.22083,9.69557 12.96883,20.12756 15.70543,32.06527 6.3276,2.61582 5.88094,12.00589 3.27197,23.55827 l -0.65437,23.5581 -24.21261,9.8159 -47.77078,5.8896 -12.43349,3.2719 c -18.02386,42.28466 -84.94881,37.04216 -103.39424,-1.9631 l -15.05108,2.6176 -268.30164,-2.6176 -3.27198,4.5807 -20.94058,-0.6544 c -14.05583,43.16356 -94.29665,47.11536 -106.66621,-5.8895 l -10.47032,0 -31.41093,-4.5808 -47.77074,-6.5439 c -13.02246,-7.7273 -18.45143,-13.5562 -19.63183,-18.3231 l 3.27194,-4.5807 -2.61756,-26.17579 c 1.76145,-8.86137 3.37716,-11.70651 7.85271,-13.74229 z m 289.93117,-112.15103 c -28.79712,0.0468 -56.95135,1.105 -82.28829,6.68822 l 5.90412,50.09254 88.93033,3.09042 c 3.65344,-0.77296 7.45394,-1.37149 6.73436,-7.61076 l -9.27128,-52.26042 c -3.34972,-0.017 -6.67312,-0.004 -10.00924,0 z m -86.53184,7.65686 c -17.04851,4.1593 -32.74334,10.50072 -46.3563,20.15691 -5.39503,3.6144 -7.36943,7.90107 -7.14951,12.63845 2.50009,10.82213 8.886,15.17375 18.12743,14.76026 l 41.28246,1.42989 -5.90408,-48.98551 z m 115.944,-7.23078 18.97026,53.95982 c 2.39253,3.90313 5.86976,6.83006 12.22522,7.16656 l 92.32195,3.79404 c -13.16039,-8.96285 -2.3346,-25.52616 10.96056,-21.92121 -24.9469,-20.77467 -52.03415,-33.9607 -81.36134,-39.20517 -17.20293,-2.7725 -35.13119,-3.36912 -53.11665,-3.79404 z m -305.70077,53.52983 c -7.58515,2.71304 -9.42465,22.00011 -9.73317,45.70353 l 24.7561,-0.21137 c 0.95086,-8.2873 1.12766,-16.57459 0.1059,-24.86188 -2.43582,-14.49738 -9.21778,-16.29061 -15.1287,-20.63007 z m 164.35458,22.20175 23.43616,0 c 1.86259,0 3.36206,1.49946 3.36206,3.36201 0,1.8626 -1.49947,3.36202 -3.36206,3.36202 l -23.43616,0 c -1.86259,0 -3.36206,-1.49942 -3.36206,-3.36202 0,-1.86255 1.49947,-3.36201 3.36206,-3.36201 z m 161.62177,3.86656 23.4362,0 c 1.86259,0 3.36201,1.49946 3.36201,3.36201 0,1.86255 -1.49942,3.36202 -3.36201,3.36202 l -23.4362,0 c -1.8626,0 -3.36202,-1.49947 -3.36202,-3.36202 0,-1.86255 1.49942,-3.36201 3.36202,-3.36201 z m -145.67116,90.23419 c 0,21.4307 -17.39296,38.8237 -38.82371,38.8237 -21.43062,0 -38.82362,-17.393 -38.82362,-38.8237 0,-21.4307 17.393,-38.82371 38.82362,-38.82371 21.43075,0 38.82371,17.39301 38.82371,38.82371 z m 414.41847,-4.9213 c 0,21.4307 -17.39305,38.8237 -38.82371,38.8237 -21.43071,0 -38.82371,-17.393 -38.82371,-38.8237 0,-21.43068 17.393,-38.82373 38.82371,-38.82373 21.43066,0 38.82371,17.39305 38.82371,38.82373 z m 32.4443,-46.90313 50.16208,0.32366 c -3.86941,-8.35007 -8.86171,-15.73461 -16.61278,-21.79086 l -19.4176,1.51027 c -3.56263,0.53801 -5.06652,2.1054 -6.36468,3.77562 l -7.76702,16.18131 z" />
      </g>
    </g>
  </g>
</svg>
