<?xml version="1.0" encoding="UTF-8" standalone="no"?>
<!-- Created with Inkscape (http://www.inkscape.org/) -->
<svg
   xmlns:dc="http://purl.org/dc/elements/1.1/"
   xmlns:cc="http://creativecommons.org/ns#"
   xmlns:rdf="http://www.w3.org/1999/02/22-rdf-syntax-ns#"
   xmlns:svg="http://www.w3.org/2000/svg"
   xmlns="http://www.w3.org/2000/svg"
   xmlns:sodipodi="http://sodipodi.sourceforge.net/DTD/sodipodi-0.dtd"
   xmlns:inkscape="http://www.inkscape.org/namespaces/inkscape"
   width="167.82721"
   height="55.331657"
   id="svg2"
   inkscape:label="Pozadí"
   sodipodi:version="0.32"
   inkscape:version="0.45.1+0.46pre1"
   version="1.0"
   sodipodi:docname="car-octavia.svg"
   inkscape:output_extension="org.inkscape.output.svg.inkscape">
  <defs
     id="defs3283">
    <inkscape:perspective
       sodipodi:type="inkscape:persp3d"
       inkscape:vp_x="-50 : 600 : 1"
       inkscape:vp_y="0 : 1000 : 0"
       inkscape:vp_z="700 : 600 : 1"
       inkscape:persp3d-origin="300 : 400 : 1"
       id="perspective3289" />
  </defs>
  <sodipodi:namedview
     id="base"
     pagecolor="#ffffff"
     bordercolor="#666666"
     borderopacity="1.0"
     inkscape:pageopacity="0.0"
     inkscape:pageshadow="2"
     inkscape:zoom="0.35"
     inkscape:cx="375"
     inkscape:cy="520"
     inkscape:document-units="px"
     inkscape:current-layer="layer1"
     showgrid="false" />
  <metadata
     id="metadata3286">
    <rdf:RDF>
      <cc:Work
         rdf:about="">
        <dc:format>image/svg+xml</dc:format>
        <dc:type
           rdf:resource="http://purl.org/dc/dcmitype/StillImage" />
      </cc:Work>
    </rdf:RDF>
  </metadata>
  <g
     inkscape:label="Vrstva 1"
     inkscape:groupmode="layer"
     id="layer1"
     transform="translate(-227.51497,-167.5535)">
    <path
       id="path2220"
       style="fill:#000000;fill-rule:evenodd;stroke:none;stroke-width:1px;stroke-linecap:butt;stroke-linejoin:miter;stroke-opacity:1;display:inline"
       d="M 229.51519,196.326 C 229.4281,187.91511 230.1524,182.20886 232.4386,181.70896 L 244.28611,180.17032 C 252.66774,176.30003 261.40281,171.48723 269.05815,169.55373 C 274.93731,168.38304 281.15776,167.66738 287.82952,167.5535 C 301.25501,167.76759 316.18707,166.85178 325.67998,170.01532 C 334.72154,174.19114 343.62862,178.63592 352.14452,183.86305 C 363.6226,184.64626 387.0517,187.83915 390.45659,191.55624 C 392.15438,193.8359 393.50587,196.28871 394.14931,199.09555 C 395.63708,199.71059 395.53206,201.91842 394.91863,204.63465 L 394.76477,210.17374 L 389.07181,212.48169 L 377.83976,213.86646 L 374.91635,214.63578 C 370.67851,224.57791 354.94286,223.34528 350.6059,214.17419 L 347.06703,214.78965 L 283.98292,214.17419 L 283.2136,215.25123 L 278.28997,215.09737 C 274.98511,225.24615 256.11858,226.17532 253.2102,213.7126 L 250.74838,213.7126 L 243.36292,212.63555 L 232.13088,211.09692 C 229.06899,209.28004 227.79251,207.90953 227.51497,206.78873 L 228.28428,205.71169 L 227.66883,199.55714 C 228.08299,197.47362 228.46288,196.80466 229.51519,196.326 z M 297.68492,169.95662 C 290.91403,169.96765 284.2943,170.21643 278.33698,171.52918 L 279.72518,183.30713 L 300.63482,184.03376 C 301.49383,183.85202 302.38742,183.71129 302.21823,182.24429 L 300.03833,169.95662 C 299.25073,169.95278 298.46932,169.95534 297.68492,169.95662 z M 277.33922,171.75693 C 273.33071,172.73488 269.64048,174.2259 266.43975,176.4963 C 265.17125,177.34613 264.70702,178.35403 264.75873,179.4679 C 265.34656,182.01244 266.84804,183.03561 269.02092,182.93839 L 278.72741,183.27459 L 277.33922,171.75693 z M 304.60042,170.0568 L 309.06078,182.74404 C 309.62332,183.66176 310.4409,184.34995 311.93522,184.42907 L 333.64231,185.32114 C 330.54799,183.21376 333.09339,179.31933 336.2194,180.16694 C 330.35379,175.28232 323.98493,172.18197 317.08941,170.94887 C 313.04459,170.29699 308.82923,170.15671 304.60042,170.0568 z M 232.72288,182.64294 C 230.93943,183.28084 230.50692,187.81569 230.43438,193.38893 L 236.25513,193.33918 C 236.4787,191.39064 236.52027,189.4421 236.28,187.49356 C 235.70728,184.08488 234.11268,183.66325 232.72288,182.64294 z M 271.36656,187.8631 L 276.87696,187.8631 C 277.3149,187.8631 277.66746,188.21566 277.66746,188.65359 C 277.66746,189.09153 277.3149,189.44408 276.87696,189.44408 L 271.36656,189.44408 C 270.92862,189.44408 270.57606,189.09153 270.57606,188.65359 C 270.57606,188.21566 270.92862,187.8631 271.36656,187.8631 z M 309.36769,188.77222 L 314.8781,188.77222 C 315.31604,188.77222 315.66859,189.12478 315.66859,189.56271 C 315.66859,190.00064 315.31604,190.3532 314.8781,190.3532 L 309.36769,190.3532 C 308.92975,190.3532 308.5772,190.00064 308.5772,189.56271 C 308.5772,189.12478 308.92975,188.77222 309.36769,188.77222 z M 275.11693,209.98843 C 275.11693,215.0273 271.02743,219.11681 265.98855,219.11681 C 260.9497,219.11681 256.86019,215.0273 256.86019,209.98843 C 256.86019,204.94957 260.9497,200.86005 265.98855,200.86005 C 271.02743,200.86005 275.11693,204.94957 275.11693,209.98843 z M 372.55659,208.83131 C 372.55659,213.87018 368.46707,217.95969 363.42821,217.95969 C 358.38934,217.95969 354.29983,213.87018 354.29983,208.83131 C 354.29983,203.79245 358.38934,199.70293 363.42821,199.70293 C 368.46707,199.70293 372.55659,203.79245 372.55659,208.83131 z M 380.18502,197.80327 L 391.97932,197.87937 C 391.06953,195.91607 389.89572,194.17979 388.07326,192.75582 L 383.50772,193.11092 C 382.67006,193.23742 382.31646,193.60595 382.01123,193.99866 L 380.18502,197.80327 z" />
  </g>
</svg>
