<?xml version="1.0" encoding="UTF-8" standalone="no"?>
<!-- Created with Inkscape (http://www.inkscape.org/) -->
<svg xmlns:svg="http://www.w3.org/2000/svg" xmlns="http://www.w3.org/2000/svg" version="1.0" width="514.16699" height="155.72101" viewBox="0 0 564.893 155.72" id="Layer_1" xml:space="preserve" style="overflow: visible;"><defs id="defs26"/>

<g transform="matrix(1.09866, 0, 0, 1.09866, 0, -7.68196)" id="g2403">
	<g id="g2405">
		<path d="M 20.591,73.837 L 0,73.837 L 0,48.486 L 21.173,48.486 L 21.173,42.05 C 21.173,10.865 35.353,0 63.324,0 C 70.9,0 76.727,1.207 81.194,2.013 L 79.058,26.96 C 76.145,25.954 73.231,25.35 67.987,25.35 C 59.052,25.35 55.555,31.788 55.555,42.05 L 55.555,48.487 L 80.418,48.487 L 80.418,73.838 L 55.555,73.838 L 55.555,153.305 L 20.591,153.305 L 20.591,73.837 z" id="path2407" style="fill: rgb(0, 99, 219);"/>
		<rect width="34.964001" height="150.88901" x="98.675003" y="2.415" id="rect2409" style="fill: rgb(0, 99, 219);"/>
		<rect width="34.965" height="26.556999" x="163.552" y="4.829" id="rect2411" style="fill: rgb(0, 99, 219);"/>
		<rect width="34.965" height="104.817" x="163.552" y="48.486" id="rect2413" style="fill: rgb(0, 99, 219);"/>
		<path d="M 303.604,78.462 C 297.194,74.441 290.784,72.629 282.431,72.629 C 267.28,72.629 255.625,83.493 255.625,101.601 C 255.625,118.3 269.223,129.162 284.374,129.162 C 292.339,129.162 300.304,127.353 306.13,124.133 L 306.907,151.092 C 298.165,154.112 287.677,155.721 278.353,155.721 C 244.941,155.721 219.496,135.602 219.496,100.998 C 219.496,66.192 244.941,46.074 278.353,46.074 C 288.843,46.074 298.165,47.885 306.13,51.908 L 303.604,78.462 z" id="path2415" style="fill: rgb(0, 99, 219);"/>
		<polygon points="321.477,2.415 356.44,2.415 356.44,92.548 356.829,92.548 385.965,48.486 424.231,48.486 389.073,96.569 427.145,153.304 384.799,153.304 356.829,101.399 356.44,101.399 356.44,153.304 321.477,153.304 321.477,2.415" id="polygon2417" style="fill: rgb(0, 99, 219);"/>
		<path d="M 512.417,77.456 C 508.532,76.251 504.646,76.251 500.569,76.251 C 484.253,76.251 475.122,88.522 475.122,109.044 L 475.122,153.304 L 440.159,153.304 L 440.159,48.486 L 472.014,48.486 L 472.014,67.8 L 472.403,67.8 C 478.423,54.521 487.165,46.072 502.317,46.072 C 506.393,46.072 510.667,46.675 514.167,47.278 L 512.417,77.456 z" id="path2419" style="fill: rgb(255, 0, 132);"/>
		
		
	</g>
</g></svg>